<svg width="20" height="20" viewBox="0 0 20 20" fill="none" xmlns="http://www.w3.org/2000/svg">
<path d="M9.99379 16.2444C13.5534 16.2444 16.4914 13.3064 16.4914 9.75307C16.4914 6.19978 13.5471 3.26172 9.98751 3.26172C6.43422 3.26172 3.50244 6.19978 3.50244 9.75307C3.50244 13.3064 6.4405 16.2444 9.99379 16.2444ZM9.98124 12.7916C8.58126 12.7916 7.65841 11.5862 7.65841 9.75307C7.65841 7.91992 8.58126 6.71456 9.98124 6.71456C11.3875 6.71456 12.3229 7.91992 12.3229 9.75307C12.3229 11.5862 11.3875 12.7916 9.98124 12.7916ZM9.98751 11.8122C10.6718 11.8122 11.1364 11.0275 11.1364 9.75307C11.1364 8.47238 10.6718 7.68764 9.98751 7.68764C9.3095 7.68764 8.84494 8.47238 8.84494 9.75307C8.84494 11.0275 9.3095 11.8122 9.98751 11.8122Z" fill="#968B79"/>
</svg>
