<svg width="20" height="20" viewBox="0 0 20 20" fill="none" xmlns="http://www.w3.org/2000/svg">
<path d="M9.99379 16.2444C13.5534 16.2444 16.4914 13.3064 16.4914 9.75307C16.4914 6.19978 13.5471 3.26172 9.98751 3.26172C6.43422 3.26172 3.50244 6.19978 3.50244 9.75307C3.50244 13.3064 6.4405 16.2444 9.99379 16.2444ZM10.3579 12.7225C9.9624 12.7225 9.72384 12.4777 9.72384 12.0257V8.0957H9.67362L8.89516 8.60421C8.73193 8.71722 8.6566 8.73605 8.53732 8.73605C8.2862 8.73605 8.09787 8.5226 8.09787 8.27776C8.09787 8.07059 8.17948 7.94503 8.35526 7.82575L9.479 7.06613C9.79918 6.85268 10.0126 6.77734 10.3014 6.77734C10.7346 6.77734 11.0045 7.04102 11.0045 7.47419V12.0257C11.0045 12.4777 10.7597 12.7225 10.3579 12.7225Z" fill="#968B79"/>
</svg>
