<svg width="20" height="20" viewBox="0 0 20 20" fill="none" xmlns="http://www.w3.org/2000/svg">
<path d="M9.99379 16.2444C13.5534 16.2444 16.4914 13.3064 16.4914 9.75307C16.4914 6.19978 13.5471 3.26172 9.98751 3.26172C6.43422 3.26172 3.50244 6.19978 3.50244 9.75307C3.50244 13.3064 6.4405 16.2444 9.99379 16.2444ZM8.51221 12.6848C8.1732 12.6848 7.95975 12.484 7.95975 12.1763C7.95975 12.0068 8.02253 11.8499 8.19203 11.6804L10.1696 9.64634C10.5714 9.24456 10.9166 8.87416 10.9166 8.45354C10.9166 7.9827 10.5588 7.66881 10.0189 7.66881C9.46645 7.66881 9.16511 8.04548 8.99561 8.39076C8.87633 8.58538 8.73821 8.74233 8.46198 8.74233C8.14809 8.74233 7.93464 8.55399 7.93464 8.24637C7.93464 8.1522 7.9472 8.05804 7.97859 7.95759C8.20459 7.2168 9.04583 6.67062 10.0126 6.67062C11.2619 6.67062 12.0906 7.34235 12.0906 8.34682C12.0906 9.04994 11.7014 9.56473 11.0736 10.1862L9.71756 11.6113V11.6553H11.8207C12.1471 11.6553 12.3668 11.8499 12.3668 12.1701C12.3668 12.4902 12.1471 12.6848 11.8207 12.6848H8.51221Z" fill="#968B79"/>
</svg>
