<svg width="20" height="20" viewBox="0 0 20 20" fill="none" xmlns="http://www.w3.org/2000/svg">
<path d="M9.99379 16.2444C13.5534 16.2444 16.4914 13.3064 16.4914 9.75307C16.4914 6.19978 13.5471 3.26172 9.98751 3.26172C6.43422 3.26172 3.50244 6.19978 3.50244 9.75307C3.50244 13.3064 6.4405 16.2444 9.99379 16.2444ZM9.96868 12.8355C8.88888 12.8355 8.01625 12.3333 7.80908 11.5988C7.78397 11.4983 7.77141 11.4293 7.77141 11.3225C7.77141 11.0149 7.99114 10.8078 8.31759 10.8078C8.56243 10.8078 8.72566 10.9145 8.83866 11.153C9.00188 11.5548 9.35972 11.8499 9.99379 11.8499C10.653 11.8499 11.0987 11.5172 11.0987 11.0149C11.0987 10.5001 10.6592 10.1549 10.0001 10.1549H9.63595C9.33461 10.1549 9.12744 9.95396 9.12744 9.67773C9.12744 9.38267 9.33461 9.19434 9.63595 9.19434H9.96868C10.5274 9.19434 10.9229 8.85533 10.9229 8.37193C10.9229 7.91992 10.5714 7.63742 9.99379 7.63742C9.46017 7.63742 9.08977 7.90109 8.9391 8.34054C8.83866 8.57282 8.67543 8.68583 8.42432 8.68583C8.09787 8.68583 7.87814 8.48493 7.87814 8.17732C7.87814 8.07687 7.89069 7.99526 7.91581 7.89481C8.11042 7.14146 8.92027 6.67062 10.0126 6.67062C11.2494 6.67062 12.1094 7.31097 12.1094 8.24009C12.1094 8.89927 11.6072 9.4894 10.9606 9.57729V9.63379C11.7328 9.70912 12.3041 10.3181 12.3041 11.0714C12.3041 12.1136 11.4126 12.8355 9.96868 12.8355Z" fill="#968B79"/>
</svg>
