<svg width="20" height="20" viewBox="0 0 20 20" fill="none" xmlns="http://www.w3.org/2000/svg">
<path d="M9.99379 16.2444C13.5534 16.2444 16.4914 13.3064 16.4914 9.75307C16.4914 6.19978 13.5471 3.26172 9.98751 3.26172C6.43422 3.26172 3.50244 6.19978 3.50244 9.75307C3.50244 13.3064 6.4405 16.2444 9.99379 16.2444ZM7.45124 10.927C7.45124 10.745 7.50146 10.5755 7.59563 10.3809C8.23598 9.23828 8.81982 8.18359 9.45389 7.04729C9.59201 6.80246 9.74895 6.68318 10.0001 6.68318C10.3391 6.68318 10.5462 6.93429 10.5462 7.22307C10.5462 7.34863 10.5086 7.45536 10.4395 7.60603C9.91846 8.59166 9.37856 9.56473 8.85121 10.5504H10.4395V9.35756C10.4395 8.98716 10.653 8.75488 10.992 8.75488C11.3498 8.75488 11.5633 8.98089 11.5633 9.35756V10.5504H11.9274C12.2727 10.5504 12.4798 10.745 12.4798 11.04C12.4798 11.3539 12.2727 11.5611 11.9274 11.5611H11.5633V12.1073C11.5633 12.5091 11.3498 12.7288 10.992 12.7288C10.653 12.7288 10.4395 12.5028 10.4395 12.1073V11.5611H8.1167C7.70864 11.5611 7.45124 11.3225 7.45124 10.927Z" fill="#968B79"/>
</svg>
