<svg width="20" height="20" viewBox="0 0 20 20" fill="none" xmlns="http://www.w3.org/2000/svg">
<path d="M9.99379 16.2444C13.5534 16.2444 16.4914 13.3064 16.4914 9.75307C16.4914 6.19978 13.5471 3.26172 9.98751 3.26172C6.43422 3.26172 3.50244 6.19978 3.50244 9.75307C3.50244 13.3064 6.4405 16.2444 9.99379 16.2444ZM9.94985 12.8355C8.87005 12.8355 8.09787 12.4275 7.84675 11.7808C7.79653 11.6804 7.77141 11.5737 7.77141 11.4481C7.77141 11.1593 7.97859 10.9584 8.30504 10.9584C8.5436 10.9584 8.70682 11.0652 8.8261 11.2472C9.03955 11.6239 9.43506 11.8562 9.93101 11.8562C10.5651 11.8562 11.0485 11.3853 11.0485 10.7575C11.0485 10.1172 10.6404 9.69657 10.0252 9.69657C9.71756 9.69657 9.49156 9.79074 9.20905 10.0167C8.96422 10.1862 8.80727 10.249 8.53732 10.249C8.09787 10.249 7.84675 9.97907 7.87814 9.53962L8.04136 7.50558C8.06648 7.09124 8.36782 6.81501 8.8261 6.81501H11.5319C11.8269 6.81501 12.0153 7.00335 12.0153 7.29213C12.0153 7.57464 11.8207 7.76297 11.5319 7.76297H9.03327L8.89516 9.35128H8.95794C9.17766 9.02483 9.71756 8.79255 10.2637 8.79255C11.444 8.79255 12.2601 9.57729 12.2601 10.7261C12.2601 12.0068 11.331 12.8355 9.94985 12.8355Z" fill="#968B79"/>
</svg>
