<svg width="20" height="20" viewBox="0 0 20 20" fill="none" xmlns="http://www.w3.org/2000/svg">
<path d="M9.99379 16.2444C13.5534 16.2444 16.4914 13.3064 16.4914 9.75307C16.4914 6.19978 13.5471 3.26172 9.98751 3.26172C6.43422 3.26172 3.50244 6.19978 3.50244 9.75307C3.50244 13.3064 6.4405 16.2444 9.99379 16.2444ZM10.044 12.8355C9.22161 12.8355 8.49337 12.5279 8.06648 11.8311C7.78397 11.379 7.62074 10.7261 7.62074 9.85352C7.62074 7.74414 8.60638 6.67062 10.201 6.67062C11.0548 6.67062 11.7642 7.06613 11.9839 7.53697C12.0404 7.64369 12.0718 7.75042 12.0718 7.8697C12.0718 8.13965 11.8709 8.32171 11.6009 8.32171C11.3498 8.32171 11.2117 8.20243 11.0108 8.02037C10.8225 7.8132 10.5839 7.63742 10.1759 7.63742C9.35972 7.63742 8.81355 8.4096 8.81355 9.58984C8.81355 9.62751 8.81355 9.6589 8.81982 9.70285H8.87005C9.08977 9.24456 9.60456 8.84277 10.4144 8.84277C11.4503 8.84277 12.3417 9.53334 12.3417 10.7324C12.3417 12.0571 11.4 12.8355 10.044 12.8355ZM9.98751 11.9001C10.6655 11.9001 11.105 11.4544 11.105 10.7764C11.105 10.1297 10.6467 9.67773 9.99379 9.67773C9.34089 9.67773 8.87633 10.136 8.87633 10.7701C8.87633 11.423 9.34089 11.9001 9.98751 11.9001Z" fill="#968B79"/>
</svg>
