<svg width="20" height="20" viewBox="0 0 20 20" fill="none" xmlns="http://www.w3.org/2000/svg">
<path d="M9.99379 16.2444C13.5534 16.2444 16.4914 13.3064 16.4914 9.75307C16.4914 6.19978 13.5471 3.26172 9.98751 3.26172C6.43422 3.26172 3.50244 6.19978 3.50244 9.75307C3.50244 13.3064 6.4405 16.2444 9.99379 16.2444ZM9.18394 12.8292C8.8261 12.8292 8.56243 12.6032 8.56243 12.2705C8.56243 12.1198 8.59382 12.0068 8.66915 11.875L10.9292 7.85714V7.80692H8.33643C8.03509 7.80692 7.82792 7.60603 7.82792 7.31097C7.82792 7.0159 8.02881 6.81501 8.33643 6.81501H11.4754C11.9776 6.81501 12.2978 7.12263 12.2978 7.54953C12.2978 7.73786 12.2538 7.90737 12.1094 8.17732L9.79918 12.4023C9.6234 12.7162 9.45389 12.8292 9.18394 12.8292Z" fill="#968B79"/>
</svg>
