<svg width="20" height="20" viewBox="0 0 20 20" fill="none" xmlns="http://www.w3.org/2000/svg">
<path d="M9.99379 16.2444C13.5534 16.2444 16.4914 13.3064 16.4914 9.75307C16.4914 6.19978 13.5471 3.26172 9.98751 3.26172C6.43422 3.26172 3.50244 6.19978 3.50244 9.75307C3.50244 13.3064 6.4405 16.2444 9.99379 16.2444ZM9.98124 12.8355C8.52476 12.8355 7.57052 12.1387 7.57052 11.0777C7.57052 10.3432 8.09787 9.75307 8.89516 9.60868V9.56473C8.21087 9.36384 7.82792 8.88044 7.82792 8.25265C7.82792 7.31097 8.70054 6.67062 9.98751 6.67062C11.2745 6.67062 12.1534 7.31097 12.1534 8.25265C12.1534 8.88044 11.7579 9.37012 11.0861 9.56473V9.60868C11.8709 9.75307 12.4045 10.3369 12.4045 11.0714C12.4045 12.1324 11.4377 12.8355 9.98124 12.8355ZM9.98751 9.21945C10.5588 9.21945 10.9606 8.86161 10.9606 8.36565C10.9606 7.88225 10.5588 7.53069 9.98751 7.53069C9.4225 7.53069 9.01444 7.88225 9.01444 8.36565C9.01444 8.86161 9.4225 9.21945 9.98751 9.21945ZM9.99379 11.9817C10.6655 11.9817 11.1615 11.5674 11.1615 10.9961C11.1615 10.4311 10.6781 10.023 9.99379 10.023C9.32206 10.023 8.81982 10.4374 8.81982 10.9961C8.81982 11.5674 9.31578 11.9817 9.99379 11.9817Z" fill="#968B79"/>
</svg>
