<svg width="20" height="20" viewBox="0 0 20 20" fill="none" xmlns="http://www.w3.org/2000/svg">
<path d="M9.99379 16.2444C13.5534 16.2444 16.4914 13.3064 16.4914 9.75307C16.4914 6.19978 13.5471 3.26172 9.98751 3.26172C6.43422 3.26172 3.50244 6.19978 3.50244 9.75307C3.50244 13.3064 6.4405 16.2444 9.99379 16.2444ZM9.85568 12.8355C8.75704 12.8355 8.12925 12.3333 7.95347 11.875C7.91581 11.7934 7.89697 11.7055 7.89697 11.6239C7.89697 11.3414 8.1167 11.1342 8.40548 11.1342C8.65032 11.1342 8.78843 11.2409 8.91399 11.379C9.16511 11.6929 9.44134 11.8624 9.8494 11.8624C10.6655 11.8624 11.2054 11.0714 11.174 9.78446H11.1238C10.9166 10.2616 10.4144 10.6571 9.59828 10.6571C8.55615 10.6571 7.66469 9.96024 7.66469 8.76116C7.66469 7.4993 8.57499 6.67062 9.95612 6.67062C11.4691 6.67062 12.3543 7.70647 12.3543 9.58357C12.3543 11.7118 11.4628 12.8355 9.85568 12.8355ZM10.0001 9.80957C10.653 9.80957 11.1113 9.35128 11.1113 8.72349C11.1113 8.07687 10.6404 7.59347 10.0063 7.59347C9.34089 7.59347 8.88888 8.04548 8.88888 8.71722C8.88888 9.35128 9.34717 9.80957 10.0001 9.80957Z" fill="#968B79"/>
</svg>
