<svg width="20" height="20" viewBox="0 0 20 20" fill="none" xmlns="http://www.w3.org/2000/svg">
<path d="M9.99379 16.2444C13.5534 16.2444 16.4914 13.3064 16.4914 9.75307C16.4914 6.19978 13.5471 3.26172 9.98751 3.26172C6.43422 3.26172 3.50244 6.19978 3.50244 9.75307C3.50244 13.3064 6.4405 16.2444 9.99379 16.2444ZM7.93464 12.7727C7.57052 12.7727 7.35079 12.5593 7.35079 12.2266C7.35079 12.1136 7.36963 12.0006 7.42613 11.8248L9.07722 7.31724C9.23417 6.86523 9.52923 6.63923 9.98124 6.63923C10.4395 6.63923 10.7471 6.86523 10.9041 7.31724L12.5489 11.8248C12.6117 12.0006 12.6305 12.1136 12.6305 12.2266C12.6305 12.5593 12.4045 12.7727 12.0467 12.7727C11.7516 12.7727 11.5507 12.6283 11.444 12.258L11.0548 11.1091H8.92027L8.53104 12.258C8.42432 12.6283 8.22342 12.7727 7.93464 12.7727ZM9.18394 10.2051H10.7911L10.0252 7.85714H9.95612L9.18394 10.2051Z" fill="#968B79"/>
</svg>
