<svg width="20" height="20" viewBox="0 0 20 20" fill="none" xmlns="http://www.w3.org/2000/svg">
<path d="M9.99379 16.2444C13.5534 16.2444 16.4914 13.3064 16.4914 9.75307C16.4914 6.19978 13.5471 3.26172 9.98751 3.26172C6.43422 3.26172 3.50244 6.19978 3.50244 9.75307C3.50244 13.3064 6.4405 16.2444 9.99379 16.2444ZM8.46198 12.666C8.0037 12.666 7.7463 12.4086 7.7463 11.9503V7.46791C7.7463 7.00335 8.00997 6.75223 8.46198 6.75223H10.3956C11.5256 6.75223 12.2476 7.31724 12.2476 8.20871C12.2476 8.85533 11.8332 9.36384 11.174 9.50823V9.55218C12.0467 9.66518 12.574 10.2114 12.574 11.0149C12.574 12.0194 11.7139 12.666 10.4144 12.666H8.46198ZM8.95794 9.21945H9.8494C10.6216 9.21945 11.0485 8.92439 11.0485 8.40332C11.0485 7.91364 10.6844 7.61858 10.088 7.61858H8.95794V9.21945ZM8.95794 11.7746H9.91218C10.8664 11.7746 11.3184 11.4983 11.3184 10.9082C11.3184 10.3432 10.8978 10.0167 10.1759 10.0167H8.95794V11.7746Z" fill="#968B79"/>
</svg>
