<svg width="20" height="20" viewBox="0 0 20 20" fill="none" xmlns="http://www.w3.org/2000/svg">
<path d="M9.99379 16.2444C13.5534 16.2444 16.4914 13.3064 16.4914 9.75307C16.4914 6.19978 13.5471 3.26172 9.98751 3.26172C6.43422 3.26172 3.50244 6.19978 3.50244 9.75307C3.50244 13.3064 6.4405 16.2444 9.99379 16.2444ZM8.13553 12.1575V7.51186C8.13553 7.1603 8.36154 6.93429 8.70054 6.93429H9.00188V6.43834C9.00188 6.26256 9.12116 6.14328 9.29067 6.14328C9.46017 6.14328 9.58573 6.26256 9.58573 6.43834V6.93429H10.0001V6.43834C10.0001 6.26256 10.1193 6.14328 10.2889 6.14328C10.4584 6.14328 10.5839 6.26256 10.5839 6.43834V6.95312C11.4817 7.05985 12.0404 7.61858 12.0404 8.41588C12.0404 8.94322 11.7139 9.43917 11.2431 9.65262C11.8897 9.84724 12.3103 10.3809 12.3103 11.0652C12.3103 12.0068 11.6637 12.6158 10.5839 12.71V13.2247C10.5839 13.4005 10.4584 13.5198 10.2889 13.5198C10.1193 13.5198 10.0001 13.4005 10.0001 13.2247V12.7225H9.58573V13.2247C9.58573 13.4005 9.46017 13.5198 9.29067 13.5198C9.12116 13.5198 9.00188 13.4005 9.00188 13.2247V12.7225H8.70054C8.35526 12.7225 8.13553 12.5028 8.13553 12.1575ZM9.11489 9.33873L9.94357 9.34501C10.6592 9.35128 11.061 9.04994 11.061 8.51632C11.061 8.03292 10.7032 7.7567 10.0942 7.7567H9.11489V9.33873ZM9.11489 11.8938L10.157 11.8876C10.9166 11.8813 11.3247 11.5862 11.3247 11.0086C11.3247 10.4374 10.9041 10.1423 10.1005 10.1423H9.11489V11.8938Z" fill="#968B79"/>
</svg>
