<svg width="20" height="20" viewBox="0 0 20 20" fill="none" xmlns="http://www.w3.org/2000/svg">
<path d="M9.99379 16.2444C13.5534 16.2444 16.4914 13.3064 16.4914 9.75307C16.4914 6.19978 13.5471 3.26172 9.98751 3.26172C6.43422 3.26172 3.50244 6.19978 3.50244 9.75307C3.50244 13.3064 6.4405 16.2444 9.99379 16.2444ZM9.99379 12.8041C8.27365 12.8041 7.18129 11.5925 7.18129 9.70912C7.18129 7.82575 8.27992 6.61412 9.99379 6.61412C11.1426 6.61412 12.0781 7.1603 12.4045 8.02665C12.4547 8.1522 12.4736 8.24637 12.4736 8.36565C12.4736 8.6921 12.2601 8.893 11.9148 8.893C11.67 8.893 11.5193 8.78627 11.3875 8.52888C11.1426 7.96387 10.6592 7.65625 10.0126 7.65625C9.07722 7.65625 8.45571 8.47238 8.45571 9.70912C8.45571 10.9459 9.07722 11.762 10.0063 11.762C10.6592 11.762 11.1426 11.4544 11.3875 10.8894C11.513 10.6383 11.67 10.5315 11.9148 10.5315C12.2601 10.5315 12.4736 10.7261 12.4736 11.0526C12.4736 11.1656 12.4547 11.2723 12.4045 11.3979C12.0843 12.2642 11.1489 12.8041 9.99379 12.8041Z" fill="#968B79"/>
</svg>
