<svg width="20" height="20" viewBox="0 0 20 20" fill="none" xmlns="http://www.w3.org/2000/svg">
<path d="M9.99662 17C13.8333 17 17 13.8317 17 10C17 6.16828 13.8265 3 9.98985 3C6.15998 3 3 6.16828 3 10C3 13.8317 6.16675 17 9.99662 17ZM9.99662 15.6054C6.89077 15.6054 4.40744 13.1074 4.40744 10C4.40744 6.89265 6.89077 4.40135 9.98985 4.40135C13.0957 4.40135 15.5926 6.89265 15.5993 10C15.6061 13.1074 13.1025 15.6054 9.99662 15.6054ZM8.36588 11.5774C9.94248 13.1547 11.9319 14.1499 13.1025 12.972C13.1498 12.9246 13.1904 12.8772 13.2243 12.8298C13.5152 12.4913 13.61 12.0377 13.2107 11.7398C12.8859 11.5097 12.5544 11.2727 12.0266 10.9072C11.6274 10.6228 11.377 10.6973 11.0725 10.9952L10.8086 11.2592C10.7342 11.3337 10.5988 11.3201 10.5109 11.266C10.274 11.1238 9.88159 10.8124 9.50942 10.44C9.14403 10.0677 8.81247 9.66151 8.67714 9.4381C8.63654 9.36364 8.60271 9.24178 8.69067 9.147L8.95457 8.86944C9.2523 8.55126 9.32673 8.32108 9.03577 7.91489L8.21701 6.75048C7.93958 6.35783 7.53359 6.42553 7.07347 6.76402C7.03963 6.7911 7.01257 6.81818 6.9855 6.83849C5.80135 8.02321 6.8028 10.0135 8.36588 11.5774Z" fill="#968B79"/>
</svg>
