<svg width="20" height="20" viewBox="0 0 20 20" fill="none" xmlns="http://www.w3.org/2000/svg">
<path fill-rule="evenodd" clip-rule="evenodd" d="M3 10C3 6.13401 6.13401 3 10 3C13.866 3 17 6.13401 17 10C17 13.866 13.866 17 10 17C6.13401 17 3 13.866 3 10ZM10 6.5C11.925 6.5 13.5 8.075 13.5 10C13.5 11.75 12.2313 13.2375 10.4813 13.5V11.0062H11.3125L11.4875 10H10.525V9.34375C10.525 9.08125 10.6562 8.81875 11.0938 8.81875H11.5312V7.94375C11.5312 7.94375 11.1375 7.85625 10.7438 7.85625C9.95625 7.85625 9.43125 8.3375 9.43125 9.2125V10H8.55625V11.0062H9.43125V13.4562C7.76875 13.1937 6.5 11.75 6.5 10C6.5 8.075 8.075 6.5 10 6.5Z" fill="#968B79"/>
</svg>
