<svg width="20" height="20" viewBox="0 0 20 20" fill="none" xmlns="http://www.w3.org/2000/svg">
<path d="M9.99379 16.2444C13.5534 16.2444 16.4914 13.3064 16.4914 9.75307C16.4914 6.19978 13.5471 3.26172 9.98751 3.26172C6.43422 3.26172 3.50244 6.19978 3.50244 9.75307C3.50244 13.3064 6.4405 16.2444 9.99379 16.2444ZM8.33015 12.6597C7.89069 12.6597 7.67097 12.3835 7.67097 11.9378V7.48047C7.67097 7.03474 7.89069 6.75851 8.33015 6.75851H9.97496C11.8269 6.75851 12.8502 7.80692 12.8502 9.69657C12.8502 11.605 11.8144 12.6597 9.97496 12.6597H8.33015ZM8.89516 11.6929H9.80545C10.9606 11.6929 11.5633 11.04 11.5633 9.70912C11.5633 8.4096 10.9543 7.72531 9.80545 7.72531H8.89516V11.6929Z" fill="#968B79"/>
</svg>
