<svg width="20" height="20" viewBox="0 0 20 20" fill="none" xmlns="http://www.w3.org/2000/svg">
<path d="M9.99379 16.2444C13.5534 16.2444 16.4914 13.3064 16.4914 9.75307C16.4914 6.19978 13.5471 3.26172 9.98751 3.26172C6.43422 3.26172 3.50244 6.19978 3.50244 9.75307C3.50244 13.3064 6.4405 16.2444 9.99379 16.2444ZM9.98751 13.4194C9.81801 13.4194 9.69245 13.2938 9.69245 13.118V12.6723C8.75704 12.597 8.06648 12.1073 7.87814 11.4167C7.85303 11.3351 7.84047 11.2598 7.84047 11.1844C7.84047 10.9208 8.02253 10.7387 8.29248 10.7387C8.51848 10.7387 8.66915 10.858 8.76332 11.0903C8.86377 11.4732 9.17139 11.7557 9.69245 11.8311V10.1235L9.57945 10.0984C8.49337 9.84724 7.92836 9.34501 7.92836 8.49749C7.92836 7.58091 8.66288 6.95312 9.69245 6.85896V6.4195C9.69245 6.23744 9.81801 6.11816 9.98751 6.11816C10.157 6.11816 10.2889 6.24372 10.2889 6.4195V6.85896C11.1678 6.94685 11.8207 7.43025 11.9964 8.10198C12.0153 8.17732 12.0341 8.25265 12.0341 8.32799C12.0341 8.5791 11.8521 8.76116 11.5884 8.76116C11.3561 8.76116 11.2054 8.62932 11.1113 8.41588C10.9857 8.03292 10.7032 7.78809 10.2889 7.71275V9.32617L10.4332 9.35756C11.5695 9.57101 12.1408 10.0921 12.1408 10.9835C12.1408 11.9754 11.3498 12.5844 10.2889 12.6786V13.118C10.2889 13.2938 10.157 13.4194 9.98751 13.4194ZM9.69245 9.1755V7.70647C9.1965 7.78809 8.89516 8.08315 8.89516 8.43471C8.89516 8.78627 9.12744 9.01228 9.64851 9.16295L9.69245 9.1755ZM10.2889 10.2679V11.8311C10.8853 11.762 11.1803 11.4607 11.1803 11.0526C11.1803 10.6885 10.9731 10.4499 10.4081 10.2992L10.2889 10.2679Z" fill="#968B79"/>
</svg>
