<svg width="20" height="20" viewBox="0 0 20 20" fill="none" xmlns="http://www.w3.org/2000/svg">
<path d="M9.99379 16.2444C13.5534 16.2444 16.4914 13.3064 16.4914 9.75307C16.4914 6.19978 13.5471 3.26172 9.98751 3.26172C6.43422 3.26172 3.50244 6.19978 3.50244 9.75307C3.50244 13.3064 6.4405 16.2444 9.99379 16.2444ZM8.53732 12.6597C8.10414 12.6597 7.87814 12.3835 7.87814 11.9378V7.48047C7.87814 7.03474 8.10414 6.75851 8.53732 6.75851H11.4942C11.8144 6.75851 12.0278 6.94057 12.0278 7.26074C12.0278 7.56836 11.8144 7.76297 11.4942 7.76297H9.12744V9.20689H11.3624C11.6574 9.20689 11.8583 9.37012 11.8583 9.67146C11.8583 9.96024 11.6574 10.1235 11.3624 10.1235H9.12744V11.6553H11.4942C11.8144 11.6553 12.0278 11.8373 12.0278 12.1575C12.0278 12.4651 11.8144 12.6597 11.4942 12.6597H8.53732Z" fill="#968B79"/>
</svg>
