<svg width="20" height="20" viewBox="0 0 20 20" fill="none" xmlns="http://www.w3.org/2000/svg">
<path d="M9.99379 16.2444C13.5534 16.2444 16.4914 13.3064 16.4914 9.75307C16.4914 6.19978 13.5471 3.26172 9.98751 3.26172C6.43422 3.26172 3.50244 6.19978 3.50244 9.75307C3.50244 13.3064 6.4405 16.2444 9.99379 16.2444ZM10.8727 12.8355C9.43506 12.8355 8.25481 12.0884 7.92208 10.6508H7.25035C7.06829 10.6508 6.94901 10.5127 6.94901 10.3369C6.94901 10.1549 7.06829 10.0293 7.25035 10.0293H7.82792C7.82792 9.96652 7.82164 9.85979 7.82164 9.75307C7.82164 9.64634 7.82164 9.57101 7.82792 9.4894H7.25035C7.06829 9.4894 6.94901 9.35128 6.94901 9.1755C6.94901 8.99344 7.06829 8.86788 7.25035 8.86788H7.91581C8.25481 7.42397 9.43506 6.6769 10.879 6.6769C11.218 6.6769 11.4565 6.71456 11.6135 6.79618C11.8269 6.89662 11.8897 7.03474 11.8897 7.20424C11.8897 7.43025 11.7453 7.56836 11.5382 7.58719C11.3938 7.61858 11.1552 7.58719 10.879 7.59347C9.99379 7.59975 9.253 8.02665 8.99561 8.86788H10.9543C11.1426 8.86788 11.2619 8.99344 11.2619 9.1755C11.2619 9.35128 11.1426 9.4894 10.9543 9.4894H8.85121C8.84494 9.56473 8.84494 9.6589 8.84494 9.75935C8.84494 9.85352 8.85121 9.95396 8.85749 10.0293H10.9543C11.1426 10.0293 11.2619 10.1549 11.2619 10.3369C11.2619 10.5127 11.1426 10.6508 10.9543 10.6508H8.98933C9.253 11.492 9.98751 11.9189 10.8727 11.9252C11.1552 11.9252 11.3875 11.9001 11.5382 11.9315C11.7516 11.9503 11.896 12.0884 11.896 12.3145C11.896 12.4902 11.8081 12.6158 11.626 12.71C11.4628 12.7916 11.218 12.8355 10.8727 12.8355Z" fill="#968B79"/>
</svg>
