<svg width="20" height="20" viewBox="0 0 20 20" fill="none" xmlns="http://www.w3.org/2000/svg">
<path d="M9.99379 16.2444C13.5534 16.2444 16.4914 13.3064 16.4914 9.75307C16.4914 6.19978 13.5471 3.26172 9.98751 3.26172C6.43422 3.26172 3.50244 6.19978 3.50244 9.75307C3.50244 13.3064 6.4405 16.2444 9.99379 16.2444ZM9.99379 10.8266C9.6234 10.8266 9.40995 10.6194 9.39739 10.2427L9.3095 7.11007C9.29694 6.72084 9.57317 6.45089 9.98751 6.45089C10.3893 6.45089 10.6844 6.72712 10.6718 7.11635L10.5714 10.2427C10.5588 10.6257 10.3516 10.8266 9.99379 10.8266ZM9.99379 12.9987C9.56689 12.9987 9.21533 12.6911 9.21533 12.2768C9.21533 11.8624 9.56062 11.5548 9.99379 11.5548C10.4207 11.5548 10.766 11.8624 10.766 12.2768C10.766 12.6974 10.4144 12.9987 9.99379 12.9987Z" fill="#968B79"/>
</svg>
