<svg width="20" height="20" viewBox="0 0 20 20" fill="none" xmlns="http://www.w3.org/2000/svg">
<path d="M9.99379 16.257C13.5534 16.257 16.4914 13.3189 16.4914 9.75936C16.4914 6.20606 13.5471 3.26801 9.98751 3.26801C6.43422 3.26801 3.50244 6.20606 3.50244 9.75936C3.50244 13.3189 6.4405 16.257 9.99379 16.257ZM8.59382 12.7539C8.17948 12.7539 7.95975 12.4714 7.95975 12.0382V7.48676C7.95975 7.04102 8.18576 6.7648 8.61893 6.7648H11.6198C11.9337 6.7648 12.1471 6.94686 12.1471 7.26703C12.1471 7.57465 11.9337 7.76926 11.6198 7.76926H9.22789V9.30107H11.4189C11.7139 9.30107 11.9148 9.47685 11.9148 9.77819C11.9148 10.0733 11.7139 10.2365 11.4189 10.2365H9.23417V12.0382C9.23417 12.4777 9.00188 12.7539 8.59382 12.7539Z" fill="#968B79"/>
</svg>
