<svg width="20" height="20" viewBox="0 0 20 20" fill="none" xmlns="http://www.w3.org/2000/svg">
<path d="M9.99613 18C14.3809 18 18 14.6071 18 10.4964C18 6.39294 14.3731 3 9.9884 3C5.61141 3 2 6.39294 2 10.4964C2 14.6071 5.61914 18 9.99613 18ZM9.99613 10.8444C9.85694 10.8444 9.71001 10.7936 9.54761 10.6486L6.17593 7.47318C6.2842 7.40068 6.51619 7.33543 6.84099 7.33543H13.1435C13.4761 7.33543 13.7081 7.40068 13.8163 7.47318L10.4369 10.6486C10.2823 10.7864 10.1431 10.8444 9.99613 10.8444ZM8.45723 10.4891L5.75834 13.0193C5.69647 12.9251 5.66554 12.7438 5.66554 12.4828V8.50991C5.66554 8.24166 5.70421 8.06042 5.75834 7.96617L8.45723 10.4891ZM11.5196 10.4891L14.2185 7.96617C14.2726 8.06042 14.3035 8.24166 14.3035 8.50991V12.4828C14.3035 12.7438 14.2726 12.9251 14.2185 13.0193L11.5196 10.4891ZM9.9884 11.4679C10.2823 11.4679 10.5065 11.3664 10.8004 11.1126L11.0324 10.9096L13.8163 13.5196C13.7081 13.6066 13.4761 13.6573 13.1435 13.6573H6.84099C6.50073 13.6573 6.27646 13.6066 6.1682 13.5196L8.94442 10.9096L9.18415 11.1126C9.47801 11.3664 9.70227 11.4679 9.9884 11.4679Z" fill="#968B79"/>
</svg>
