<svg width="20" height="20" viewBox="0 0 20 20" fill="none" xmlns="http://www.w3.org/2000/svg">
<path d="M9.99379 16.2444C13.5534 16.2444 16.4914 13.3064 16.4914 9.75307C16.4914 6.19978 13.5471 3.26172 9.98751 3.26172C6.43422 3.26172 3.50244 6.19978 3.50244 9.75307C3.50244 13.3064 6.4405 16.2444 9.99379 16.2444ZM10.0063 12.8292C8.27365 12.8292 7.16246 11.6176 7.16246 9.70912C7.16246 7.8132 8.27365 6.58901 9.98751 6.58901C11.2054 6.58901 12.0906 7.16657 12.4045 7.97014C12.4485 8.08315 12.4736 8.18359 12.4736 8.30287C12.4736 8.62305 12.2664 8.81766 11.9337 8.81766C11.6637 8.81766 11.5193 8.6921 11.4 8.47238C11.1552 7.91364 10.6844 7.59975 10.0189 7.59975C9.07094 7.59975 8.44315 8.44727 8.44315 9.70912C8.44315 10.9835 9.07722 11.8311 10.0377 11.8311C10.9166 11.8311 11.3812 11.3665 11.3812 10.6759V10.3244H10.3767C10.0942 10.3244 9.93101 10.1297 9.93101 9.89746C9.93101 9.64007 10.0942 9.47056 10.3767 9.47056H11.9902C12.3857 9.47056 12.6117 9.69657 12.6117 10.1046V10.5064C12.6117 11.8624 11.6323 12.8292 10.0063 12.8292Z" fill="#968B79"/>
</svg>
