<svg width="20" height="20" viewBox="0 0 20 20" fill="none" xmlns="http://www.w3.org/2000/svg">
<path fill-rule="evenodd" clip-rule="evenodd" d="M10 3C13.866 3 17 6.13401 17 10C17 13.866 13.866 17 10 17C6.13401 17 3 13.866 3 10C3 6.13401 6.13401 3 10 3ZM11.4034 8.41546C11.0407 8.06864 10.5793 7.89205 10.0654 7.89205C9.15385 7.89205 8.3824 8.50771 8.10718 9.33498C8.03718 9.54498 7.9974 9.7693 7.9974 9.99998C7.9974 10.2307 8.03703 10.455 8.10703 10.665C8.38226 11.4923 9.15385 12.1079 10.0654 12.1079C10.5364 12.1079 10.9374 11.9839 11.2508 11.7739C11.6215 11.5257 11.8681 11.155 11.9492 10.7175H10.0656V9.36364H13.362C13.4033 9.59274 13.4256 9.83137 13.4256 10.0796C13.4256 11.1455 13.0438 12.0427 12.382 12.6521C11.8029 13.1866 11.0104 13.5 10.0654 13.5C8.69726 13.5 7.51362 12.7157 6.93771 11.5718C6.70067 11.0993 6.56558 10.5648 6.56558 9.99998C6.56558 9.43521 6.70081 8.90066 6.93786 8.42816C7.51377 7.2843 8.69726 6.5 10.0654 6.5C11.0089 6.5 11.8011 6.84682 12.4073 7.41159L11.4034 8.41546Z" fill="#968B79"/>
</svg>
