<svg width="20" height="20" viewBox="0 0 20 20" fill="none" xmlns="http://www.w3.org/2000/svg">
<path fill-rule="evenodd" clip-rule="evenodd" d="M10 3C13.866 3 17 6.13401 17 10C17 13.866 13.866 17 10 17C6.13401 17 3 13.866 3 10C3 6.13401 6.13401 3 10 3ZM9.08052 7.97134C8.67367 7.97134 8.34485 7.64252 8.34485 7.23567C8.34485 6.82882 8.67367 6.5 9.08052 6.5C9.48736 6.5 9.81619 6.82882 9.81619 7.23567V7.97134H9.08052ZM7.24122 11.6608C7.64807 11.6608 7.97689 11.332 7.97689 10.9252V10.1895H7.24122C6.83438 10.1895 6.50555 10.5183 6.50555 10.9252C6.50555 11.332 6.83438 11.6608 7.24122 11.6608ZM9.08052 10.1895C8.67367 10.1895 8.34485 10.5183 8.34485 10.9252V12.7644C8.34485 13.1712 8.67367 13.5 9.08052 13.5C9.48736 13.5 9.81619 13.1712 9.81619 12.7644V10.9252C9.81619 10.5183 9.48736 10.1895 9.08052 10.1895ZM9.81608 9.08041C9.81608 8.67356 9.48726 8.34474 9.08041 8.34474H7.23567C6.82882 8.34474 6.5 8.67356 6.5 9.08041C6.5 9.48726 6.82882 9.81608 7.23567 9.81608H9.08041C9.48726 9.81608 9.81608 9.48726 9.81608 9.08041ZM12.0288 9.08041C12.0288 8.67356 12.3576 8.34474 12.7644 8.34474C13.1713 8.34474 13.5001 8.67356 13.5001 9.08041C13.5001 9.48726 13.1713 9.81608 12.7644 9.81608H12.0288V9.08041ZM10.9252 9.81608C11.332 9.81608 11.6608 9.48726 11.6608 9.08041V7.23567C11.6608 6.82882 11.332 6.5 10.9252 6.5C10.5183 6.5 10.1895 6.82882 10.1895 7.23567V9.08041C10.1895 9.48726 10.5183 9.81608 10.9252 9.81608ZM10.9252 12.0287C11.332 12.0287 11.6608 12.3575 11.6608 12.7643C11.6608 13.1712 11.332 13.5 10.9252 13.5C10.5183 13.5 10.1895 13.1712 10.1895 12.7643V12.0287H10.9252ZM10.1895 10.9252C10.1895 11.332 10.5183 11.6608 10.9252 11.6608H12.7699C13.1767 11.6608 13.5056 11.332 13.5056 10.9252C13.5056 10.5183 13.1767 10.1895 12.7699 10.1895H10.9252C10.5183 10.1895 10.1895 10.5183 10.1895 10.9252Z" fill="#968B79"/>
</svg>
