<svg width="20" height="20" viewBox="0 0 20 20" fill="none" xmlns="http://www.w3.org/2000/svg">
<path fill-rule="evenodd" clip-rule="evenodd" d="M10 17C6.13401 17 3 13.866 3 10C3 6.13401 6.13401 3 10 3C13.866 3 17 6.13401 17 10C17 13.866 13.866 17 10 17ZM10.1363 14.1229C10.7874 14.1229 13.3677 11.1965 13.3677 9.23457C13.3677 7.35654 11.9002 5.8 10.1363 5.8C8.27996 5.8 6.81258 7.35654 6.81258 9.23457C6.81258 11.1965 9.39288 14.1229 10.1363 14.1229Z" fill="#968B79"/>
<path fill-rule="evenodd" clip-rule="evenodd" d="M8.52264 7.83897C8.25318 8.18225 8.09508 8.61833 8.09508 9.10096C8.09508 10.1353 8.98826 11.0194 10.1471 11.0194C11.1919 11.0194 12.0852 10.1353 12.0852 9.10096C12.0852 7.95381 11.1919 7.06959 10.1471 7.06959C9.96353 7.06959 9.7866 7.09178 9.61882 7.1337C9.89617 7.25319 10.0901 7.52689 10.0901 7.84548C10.0901 8.27396 9.73919 8.62129 9.30635 8.62129C8.87351 8.62129 8.52261 8.27396 8.52261 7.84548C8.52261 7.84331 8.52262 7.84114 8.52264 7.83897Z" fill="#968B79"/>
</svg>
