<svg width="20" height="20" viewBox="0 0 20 20" fill="none" xmlns="http://www.w3.org/2000/svg">
<path fill-rule="evenodd" clip-rule="evenodd" d="M3 10C3 6.13401 6.13401 3 10 3C13.866 3 17 6.13401 17 10C17 13.866 13.866 17 10 17C6.13401 17 3 13.866 3 10ZM12.6343 12.3233V12.3243C12.629 12.3343 12.6269 12.3417 12.6269 12.3469C12.6217 12.3574 12.6238 12.3669 12.6343 12.3774C12.6448 12.3879 12.6642 12.3931 12.6957 12.3931C12.8023 12.3779 12.9194 12.3632 13.0475 12.3475C13.164 12.337 13.2659 12.3317 13.352 12.3317C13.5867 12.3317 13.729 12.3627 13.7799 12.4231C13.7999 12.4483 13.8104 12.4892 13.8104 12.5454C13.8104 12.7187 13.7169 13.0264 13.5279 13.4695C13.5127 13.5099 13.5195 13.5378 13.551 13.5535C13.5605 13.5583 13.571 13.5609 13.5815 13.5609C13.6019 13.5609 13.6245 13.5514 13.6508 13.5304C13.823 13.3829 13.9579 13.1876 14.0551 12.946C14.1517 12.7045 14.2 12.4945 14.2 12.3159V12.2624C14.2 12.2015 14.1905 12.1558 14.1695 12.1259C14.1244 12.0692 13.9863 12.0314 13.7568 12.0104C13.7117 12.0004 13.6629 11.9972 13.6119 12.0025C13.4287 12.0077 13.2402 12.0361 13.0475 12.0865C12.9299 12.1169 12.8075 12.1758 12.6799 12.2619C12.6605 12.2823 12.6448 12.3023 12.6343 12.3233ZM5.81575 12.1936C5.80525 12.2088 5.8 12.2235 5.8 12.2393C5.8 12.2645 5.81575 12.2907 5.84673 12.3154C6.40698 12.8195 7.04021 13.2107 7.74904 13.4879C8.45631 13.7651 9.20715 13.9043 10.0016 13.9043C10.5161 13.9043 11.0428 13.8323 11.582 13.6906C12.1218 13.5478 12.6106 13.3467 13.048 13.0867C13.1908 13.0006 13.3079 12.924 13.3998 12.8578C13.4707 12.8069 13.4849 12.7507 13.4418 12.6898C13.3982 12.6284 13.3384 12.6137 13.2617 12.6441C13.2412 12.6541 13.2071 12.6688 13.1588 12.6898L13.0485 12.7355C12.0756 13.1072 11.09 13.2936 10.0924 13.2936C8.59545 13.2936 7.21033 12.924 5.93757 12.1857C5.88139 12.15 5.84096 12.1527 5.81575 12.1936ZM8.11344 10.0172H8.11239C8.11239 10.4604 8.2384 10.8032 8.49044 11.0448C8.74247 11.2863 9.06486 11.4071 9.45656 11.4071C9.71121 11.4071 9.92544 11.3819 10.0987 11.3304C10.3733 11.2537 10.6532 11.0605 10.9388 10.7497C10.9593 10.7754 10.995 10.8248 11.0465 10.8993C11.0969 10.9734 11.1336 11.0222 11.1567 11.0484C11.1793 11.0736 11.2176 11.1146 11.2712 11.1703C11.3247 11.2264 11.3867 11.2852 11.4581 11.3462C11.5447 11.3819 11.6188 11.3766 11.6797 11.3304C11.7154 11.2999 11.9443 11.102 12.3675 10.7345C12.4085 10.704 12.4284 10.6683 12.4284 10.6279C12.4284 10.5922 12.4132 10.5512 12.3827 10.5055L12.2074 10.2724C12.1717 10.2241 12.1339 10.1453 12.0971 10.0351C12.0583 9.92637 12.0394 9.80561 12.0394 9.67277V7.82454C12.0394 7.80458 12.0373 7.73948 12.032 7.63026C12.0268 7.52105 12.0194 7.44911 12.0089 7.41604C11.9994 7.38296 11.9837 7.3231 11.9627 7.23751C11.9427 7.15035 11.9207 7.08419 11.8944 7.03799C11.8698 6.99178 11.8346 6.94033 11.791 6.88152C11.7474 6.82324 11.7007 6.7681 11.6503 6.71717C11.3237 6.41684 10.8706 6.26667 10.2904 6.26667H10.0998C9.64716 6.29187 9.25073 6.41421 8.91206 6.63316C8.57392 6.85211 8.36127 7.18816 8.27463 7.64129C8.26938 7.66177 8.26676 7.67909 8.26676 7.69484C8.26676 7.76625 8.31034 7.81193 8.39645 7.83294L9.27488 7.94005C9.35627 7.92482 9.4072 7.86602 9.4282 7.76415C9.46338 7.60138 9.54214 7.47379 9.66448 7.38191C9.78682 7.28949 9.93227 7.23699 10.1003 7.22124H10.1596C10.3891 7.22124 10.5571 7.2979 10.6637 7.45121C10.7346 7.56253 10.7713 7.78201 10.7713 8.10755V8.23724C10.4605 8.26244 10.2358 8.28239 10.0992 8.29815C9.69704 8.34908 9.35837 8.43309 9.08376 8.55018C8.7829 8.67777 8.54662 8.86627 8.37335 9.11567C8.20007 9.36508 8.11344 9.66542 8.11344 10.0172Z" fill="#968B79"/>
<path fill-rule="evenodd" clip-rule="evenodd" d="M9.42715 9.86389C9.42715 10.0624 9.47651 10.2209 9.57575 10.3417C9.67551 10.4609 9.80835 10.5202 9.97637 10.5202C9.99212 10.5202 10.0131 10.5181 10.0415 10.5134C10.0693 10.5081 10.0887 10.5055 10.0992 10.5055C10.3124 10.4493 10.4783 10.3123 10.5954 10.0933C10.6511 9.99621 10.6931 9.89067 10.7214 9.77621C10.7493 9.66227 10.7645 9.56933 10.7671 9.49792C10.7697 9.42651 10.7708 9.3089 10.7708 9.14613V8.95553C10.4752 8.95553 10.251 8.97653 10.0987 9.01696C9.65031 9.14403 9.42663 9.42651 9.42663 9.86442L9.42715 9.86389Z" fill="#968B79"/>
</svg>
