<svg width="20" height="20" viewBox="0 0 20 20" fill="none" xmlns="http://www.w3.org/2000/svg">
<path d="M11.1375 10L9.3 8.95V11.05L11.1375 10Z" fill="#968B79"/>
<path fill-rule="evenodd" clip-rule="evenodd" d="M3 10C3 6.13401 6.13401 3 10 3C13.866 3 17 6.13401 17 10C17 13.866 13.866 17 10 17C6.13401 17 3 13.866 3 10ZM12.7125 7.68125C13.0188 7.76875 13.2375 7.9875 13.325 8.29375C13.5 8.8625 13.5 10 13.5 10C13.5 10 13.5 11.1375 13.3688 11.7063C13.2813 12.0125 13.0625 12.2313 12.7562 12.3188C12.1875 12.45 10 12.45 10 12.45C10 12.45 7.76875 12.45 7.24375 12.3188C6.9375 12.2313 6.71875 12.0125 6.63125 11.7063C6.5 11.1375 6.5 10 6.5 10C6.5 10 6.5 8.8625 6.5875 8.29375C6.675 7.9875 6.89375 7.76875 7.2 7.68125C7.76875 7.55 9.95625 7.55 9.95625 7.55C9.95625 7.55 12.1875 7.55 12.7125 7.68125Z" fill="#968B79"/>
</svg>
