<svg width="20" height="20" viewBox="0 0 20 20" fill="none" xmlns="http://www.w3.org/2000/svg">
<path fill-rule="evenodd" clip-rule="evenodd" d="M17 10C17 13.866 13.866 17 10 17C6.13402 17 3 13.866 3 10C3 6.13402 6.13402 3 10 3C13.866 3 17 6.13402 17 10ZM7.68752 9.35877C6.9863 9.66493 6.26582 9.97952 5.60699 10.3424C5.26297 10.5943 5.72019 10.7725 6.14915 10.9396C6.21735 10.9662 6.28481 10.9925 6.34825 11.0187C6.40104 11.0349 6.4547 11.052 6.5091 11.0694C6.98618 11.2214 7.51812 11.3908 7.98129 11.1359C8.74213 10.6988 9.46013 10.1935 10.1776 9.68865C10.4127 9.52321 10.6476 9.35784 10.8841 9.19491C10.8952 9.18782 10.9076 9.17972 10.9213 9.17088C11.1227 9.0403 11.5757 8.74668 11.4081 9.15128C11.0119 9.58458 10.5875 9.96812 10.1609 10.3538C9.87327 10.6137 9.58464 10.8746 9.30289 11.1522C9.05751 11.3516 8.80268 11.7526 9.07746 12.0318C9.71035 12.4748 10.3531 12.9071 10.9955 13.3392C11.2046 13.4798 11.4136 13.6204 11.6222 13.7613C11.9758 14.0436 12.5283 13.8152 12.606 13.3741C12.6406 13.1712 12.6753 12.9683 12.71 12.7654C12.9018 11.6441 13.0937 10.5223 13.2632 9.39727C13.2862 9.22078 13.3123 9.04432 13.3384 8.86778C13.4018 8.43987 13.4652 8.01145 13.485 7.58124C13.4339 7.1519 12.9134 7.24632 12.6237 7.34286C11.1347 7.90945 9.66053 8.51804 8.19222 9.13737C8.02588 9.21104 7.85727 9.28466 7.68752 9.35877Z" fill="#968B79"/>
</svg>
