<svg width="20" height="20" viewBox="0 0 20 20" fill="none" xmlns="http://www.w3.org/2000/svg">
<path fill-rule="evenodd" clip-rule="evenodd" d="M3 10C3 6.13401 6.13401 3 10 3C13.866 3 17 6.13401 17 10C17 13.866 13.866 17 10 17C6.13401 17 3 13.866 3 10ZM7.94683 8.79771H6.36047V13.564H7.94683V8.79771ZM8.05131 7.32329C8.04101 6.85595 7.70682 6.5 7.16413 6.5C6.62145 6.5 6.26667 6.85595 6.26667 7.32329C6.26667 7.78094 6.61097 8.14714 7.14354 8.14714H7.15368C7.70682 8.14714 8.05131 7.78094 8.05131 7.32329ZM13.6678 10.8312C13.6678 9.36716 12.8852 8.68578 11.8413 8.68578C10.9991 8.68578 10.622 9.14841 10.4114 9.47294V8.79783H8.8249C8.84581 9.24508 8.8249 13.5642 8.8249 13.5642H10.4114V10.9023C10.4114 10.7598 10.4217 10.6177 10.4637 10.5157C10.5783 10.2311 10.8394 9.93648 11.2776 9.93648C11.8519 9.93648 12.0815 10.3735 12.0815 11.014V13.564H13.6678L13.6678 10.8312Z" fill="#968B79"/>
</svg>
