<svg width="20" height="20" viewBox="0 0 20 20" fill="none" xmlns="http://www.w3.org/2000/svg">
<path fill-rule="evenodd" clip-rule="evenodd" d="M10 17C6.13401 17 3 13.866 3 10C3 6.13401 6.13401 3 10 3C13.866 3 17 6.13401 17 10C17 13.866 13.866 17 10 17ZM10.2307 13.8945C12.5257 13.8935 14.3922 12.0266 14.3931 9.73211C14.3936 8.61993 13.961 7.57416 13.1751 6.78741C12.3893 6.00063 11.3442 5.56715 10.2307 5.56667C7.9364 5.56667 6.06914 7.43383 6.06823 9.72882C6.06792 10.4624 6.25959 11.1785 6.62385 11.8097L6.03333 13.9667L8.23989 13.3878C8.84786 13.7195 9.53237 13.8942 10.229 13.8945H10.2307Z" fill="#968B79"/>
<path fill-rule="evenodd" clip-rule="evenodd" d="M8.34211 12.6343L7.03271 12.9778L7.38221 11.7011L7.29995 11.5702C6.95364 11.0194 6.77073 10.3828 6.771 9.72906C6.77175 7.82158 8.32376 6.26971 10.2321 6.26971C11.1561 6.27003 12.0248 6.63035 12.678 7.28429C13.3312 7.93824 13.6907 8.80744 13.6903 9.73187C13.6895 11.6395 12.1376 13.1915 10.2307 13.1915H10.2293C9.60851 13.1913 8.99962 13.0245 8.46844 12.7093L8.34211 12.6343ZM12.3277 10.7219C12.3017 10.6785 12.2324 10.6525 12.1284 10.6004C12.0244 10.5484 11.5131 10.2968 11.4177 10.2621C11.3224 10.2274 11.253 10.21 11.1837 10.3141C11.1144 10.4182 10.9151 10.6525 10.8544 10.7219C10.7937 10.7913 10.733 10.8 10.6291 10.7479C10.5251 10.6959 10.1899 10.5861 9.79268 10.2317C9.48349 9.95594 9.27476 9.61537 9.2141 9.51124C9.15343 9.40712 9.20763 9.35085 9.25969 9.29899C9.30649 9.25237 9.36371 9.17748 9.4157 9.11677C9.4677 9.05606 9.48504 9.01265 9.51971 8.94328C9.55437 8.87384 9.53704 8.81313 9.51104 8.76106C9.48504 8.709 9.27704 8.19707 9.19037 7.98882C9.10594 7.78601 9.0202 7.81349 8.95637 7.81028C8.89577 7.80724 8.82636 7.8066 8.75703 7.8066C8.6877 7.8066 8.57502 7.83263 8.47969 7.93675C8.38436 8.04088 8.11568 8.2925 8.11568 8.8044C8.11568 9.31633 8.48835 9.81088 8.54035 9.88029C8.59235 9.94973 9.27373 11.0002 10.3171 11.4507C10.5652 11.5579 10.7589 11.6219 10.91 11.6698C11.1591 11.749 11.3859 11.7378 11.565 11.711C11.7649 11.6812 12.1804 11.4594 12.2671 11.2165C12.3537 10.9735 12.3537 10.7653 12.3277 10.7219Z" fill="#968B79"/>
</svg>
