<svg width="20" height="20" viewBox="0 0 20 20" fill="none" xmlns="http://www.w3.org/2000/svg">
<path d="M10 11.225C9.34375 11.225 8.775 10.7 8.775 10C8.775 9.34375 9.3 8.775 10 8.775C10.6562 8.775 11.225 9.3 11.225 10C11.225 10.6562 10.6562 11.225 10 11.225Z" fill="#968B79"/>
<path fill-rule="evenodd" clip-rule="evenodd" d="M11.4875 7.025H8.5125C8.1625 7.06875 7.9875 7.1125 7.85625 7.15625C7.68125 7.2 7.55 7.2875 7.41875 7.41875C7.31489 7.52261 7.26582 7.62646 7.20651 7.752C7.19088 7.78508 7.1745 7.81976 7.15625 7.85625C7.14948 7.87655 7.14167 7.8979 7.13329 7.92079C7.08752 8.04583 7.025 8.21664 7.025 8.5125V11.4875C7.06875 11.8375 7.1125 12.0125 7.15625 12.1437C7.2 12.3187 7.2875 12.45 7.41875 12.5812C7.52261 12.6851 7.62646 12.7342 7.752 12.7935C7.78511 12.8091 7.81973 12.8255 7.85625 12.8437C7.87655 12.8505 7.89791 12.8583 7.92079 12.8667C8.04583 12.9125 8.21664 12.975 8.5125 12.975H11.4875C11.8375 12.9312 12.0125 12.8875 12.1437 12.8437C12.3187 12.8 12.45 12.7125 12.5812 12.5812C12.6851 12.4774 12.7342 12.3735 12.7935 12.248C12.8091 12.2149 12.8255 12.1803 12.8438 12.1437C12.8505 12.1234 12.8583 12.1021 12.8667 12.0792C12.9125 11.9542 12.975 11.7834 12.975 11.4875V8.5125C12.9312 8.1625 12.8875 7.9875 12.8438 7.85625C12.8 7.68125 12.7125 7.55 12.5812 7.41875C12.4774 7.31489 12.3735 7.26582 12.248 7.20651C12.2149 7.19089 12.1802 7.17448 12.1437 7.15625C12.1234 7.14948 12.1021 7.14167 12.0792 7.13329C11.9542 7.08752 11.7834 7.025 11.4875 7.025ZM10 8.11875C8.95 8.11875 8.11875 8.95 8.11875 10C8.11875 11.05 8.95 11.8812 10 11.8812C11.05 11.8812 11.8812 11.05 11.8812 10C11.8812 8.95 11.05 8.11875 10 8.11875ZM12.3625 8.075C12.3625 8.31662 12.1666 8.5125 11.925 8.5125C11.6834 8.5125 11.4875 8.31662 11.4875 8.075C11.4875 7.83337 11.6834 7.6375 11.925 7.6375C12.1666 7.6375 12.3625 7.83337 12.3625 8.075Z" fill="#968B79"/>
<path fill-rule="evenodd" clip-rule="evenodd" d="M3 10C3 6.13401 6.13401 3 10 3C13.866 3 17 6.13401 17 10C17 13.866 13.866 17 10 17C6.13401 17 3 13.866 3 10ZM8.5125 6.36875H11.4875C11.8812 6.4125 12.1437 6.45625 12.3625 6.54375C12.625 6.675 12.8 6.7625 13.0187 6.98125C13.2375 7.2 13.3688 7.41875 13.4563 7.6375C13.5438 7.85625 13.6312 8.11875 13.6312 8.5125V11.4875C13.5875 11.8812 13.5438 12.1437 13.4563 12.3625C13.325 12.625 13.2375 12.8 13.0187 13.0187C12.8 13.2375 12.5812 13.3687 12.3625 13.4562C12.1437 13.5437 11.8812 13.6312 11.4875 13.6312H8.5125C8.11875 13.5875 7.85625 13.5437 7.6375 13.4562C7.375 13.325 7.2 13.2375 6.98125 13.0187C6.7625 12.8 6.63125 12.5812 6.54375 12.3625C6.45625 12.1437 6.36875 11.8812 6.36875 11.4875V8.5125C6.4125 8.11875 6.45625 7.85625 6.54375 7.6375C6.675 7.375 6.7625 7.2 6.98125 6.98125C7.2 6.7625 7.41875 6.63125 7.6375 6.54375C7.85625 6.45625 8.11875 6.36875 8.5125 6.36875Z" fill="#968B79"/>
</svg>
