<svg width="20" height="20" viewBox="0 0 20 20" fill="none" xmlns="http://www.w3.org/2000/svg">
<path fill-rule="evenodd" clip-rule="evenodd" d="M3 10C3 6.13401 6.13401 3 10 3C13.866 3 17 6.13401 17 10C17 13.866 13.866 17 10 17C6.13401 17 3 13.866 3 10ZM9.79035 8.68969L9.80504 8.9319L9.56022 8.90224C8.66909 8.78855 7.89056 8.40298 7.22956 7.75543L6.9064 7.43412L6.82316 7.67139C6.64689 8.20031 6.75951 8.75889 7.12673 9.13457C7.32259 9.34219 7.27852 9.37185 6.94067 9.24827C6.82316 9.20872 6.72034 9.17906 6.71054 9.19389C6.67627 9.22849 6.79378 9.67832 6.88681 9.85628C7.01412 10.1034 7.27362 10.3457 7.55761 10.489L7.79753 10.6027L7.51355 10.6076C7.23935 10.6076 7.22956 10.6126 7.25893 10.7164C7.35686 11.0377 7.74367 11.3788 8.17455 11.5271L8.47813 11.6309L8.21372 11.7891C7.82202 12.0164 7.36176 12.145 6.9015 12.1549C6.68117 12.1598 6.5 12.1796 6.5 12.1944C6.5 12.2438 7.09736 12.5207 7.445 12.6294C8.48792 12.9507 9.7267 12.8123 10.657 12.2636C11.318 11.8731 11.979 11.097 12.2875 10.3457C12.454 9.94525 12.6204 9.21366 12.6204 8.8627C12.6204 8.63531 12.6351 8.60565 12.9093 8.33378C13.0709 8.1756 13.2227 8.00259 13.2521 7.95315C13.301 7.85923 13.2961 7.85923 13.0464 7.94327C12.6302 8.09156 12.5715 8.07179 12.7771 7.84935C12.9289 7.69117 13.1101 7.40446 13.1101 7.32043C13.1101 7.3056 13.0366 7.33031 12.9534 7.3748C12.8653 7.42423 12.6694 7.49838 12.5225 7.54287L12.2581 7.6269L12.0182 7.46378C11.886 7.3748 11.6999 7.27594 11.602 7.24628C11.3523 7.17707 10.9704 7.18696 10.7451 7.26605C10.1331 7.48849 9.74628 8.0619 9.79035 8.68969Z" fill="#968B79"/>
</svg>
