<svg width="20" height="20" viewBox="0 0 20 20" fill="none" xmlns="http://www.w3.org/2000/svg">
<path fill-rule="evenodd" clip-rule="evenodd" d="M10 3C6.13402 3 3 6.13402 3 10C3 13.866 6.13402 17 10 17C13.866 17 17 13.866 17 10C17 6.13402 13.866 3 10 3ZM9.98947 10.589L7.37462 8.69085V12.6921H6.93776C6.69437 12.6921 6.50091 12.4986 6.50091 12.2552V7.83058C6.50091 7.81206 6.50204 7.79468 6.5042 7.7784C6.51213 7.70899 6.53745 7.64106 6.58205 7.58095C6.72558 7.38748 7.00642 7.34379 7.20613 7.48732L9.99571 9.51557L12.804 7.46238C12.9975 7.31882 13.2721 7.36252 13.4156 7.56222C13.4919 7.66506 13.5153 7.7908 13.4905 7.90761V12.2615C13.4905 12.4986 13.297 12.6921 13.0537 12.6921H12.6168V8.68132L9.98947 10.589Z" fill="#968B79"/>
</svg>
