<svg width="20" height="20" viewBox="0 0 20 20" fill="none" xmlns="http://www.w3.org/2000/svg">
<g clip-path="url(#clip0_75_1279)">
<path d="M8.66284 10.494C8.66284 11 8.90384 11.3615 9.40986 11.3615C9.91589 11.3615 10.6869 10.518 10.8074 9.79514L11.0484 8.49399C10.8562 8.47271 10.6623 8.47271 10.4701 8.49399C9.96944 8.53099 9.50232 8.75946 9.16576 9.13192C8.8292 9.50438 8.64908 9.99215 8.66284 10.494V10.494Z" fill="#968B79"/>
<path d="M10.0121 3.04817C9.09236 3.045 8.18108 3.22339 7.33048 3.57314C6.47988 3.9229 5.70668 4.43717 5.05523 5.08637C4.40378 5.73558 3.88689 6.50698 3.5342 7.35637C3.18152 8.20576 2.99999 9.1164 3 10.0361C3 10.9569 3.18138 11.8688 3.53376 12.7195C3.88615 13.5703 4.40263 14.3432 5.05376 14.9944C5.70489 15.6455 6.4779 16.162 7.32864 16.5144C8.17938 16.8668 9.09122 17.0482 10.0121 17.0482C10.9318 17.0482 11.8424 16.8666 12.6918 16.5139C13.5412 16.1612 14.3126 15.6444 14.9618 14.993C15.611 14.3415 16.1253 13.5683 16.475 12.7177C16.8248 11.8671 17.0032 10.9558 17 10.0361C17 8.18278 16.2638 6.4054 14.9533 5.0949C13.6428 3.78441 11.8654 3.04817 10.0121 3.04817V3.04817ZM11.6506 12.0361C11.5241 12.0387 11.3986 12.0128 11.2835 11.9603C11.1684 11.9078 11.0666 11.83 10.9856 11.7328C10.9046 11.6356 10.8465 11.5215 10.8157 11.3988C10.7848 11.2761 10.7819 11.148 10.8072 11.0241V11.0241C10.6569 11.3247 10.4268 11.5781 10.142 11.7566C9.85723 11.9351 9.52881 12.0318 9.19275 12.0361C9.01425 12.0272 8.83943 11.9822 8.67877 11.9039C8.51811 11.8255 8.37494 11.7155 8.25788 11.5804C8.14083 11.4454 8.05231 11.2881 7.99764 11.1179C7.94297 10.9477 7.92329 10.7683 7.93977 10.5903C7.93965 9.87646 8.21991 9.19106 8.72017 8.68179C9.22044 8.17251 9.9007 7.88008 10.6145 7.86744C11.0388 7.86217 11.4589 7.95274 11.8434 8.13247L11.4578 10.2048C11.2891 11.0723 11.4578 11.4819 11.7952 11.4819C12.1325 11.4819 13.0482 10.7108 13.0482 9.38553C13.0799 9.00715 13.0299 8.62635 12.9017 8.26895C12.7735 7.91156 12.5699 7.58591 12.3049 7.31401C12.0398 7.04211 11.7195 6.83032 11.3655 6.693C11.0115 6.55567 10.6321 6.49602 10.253 6.51805C9.77308 6.52368 9.2993 6.62678 8.86044 6.8211C8.42158 7.01541 8.0268 7.29691 7.70004 7.64845C7.37328 8 7.12136 8.41427 6.9596 8.86614C6.79784 9.31801 6.72961 9.79803 6.75903 10.2771C6.72822 10.6797 6.78279 11.0843 6.91919 11.4644C7.05559 11.8445 7.27074 12.1915 7.55054 12.4827C7.83034 12.7738 8.16852 13.0027 8.54287 13.1541C8.91723 13.3055 9.31932 13.3762 9.72288 13.3614C10.3243 13.3793 10.9206 13.2468 11.4578 12.9759L11.6265 13.4578C11.0031 13.7837 10.3054 13.9415 9.60239 13.9157C9.13245 13.9262 8.66541 13.8397 8.23035 13.6617C7.79528 13.4838 7.40156 13.218 7.07373 12.8812C6.7459 12.5443 6.49099 12.1435 6.32491 11.7038C6.15883 11.264 6.08513 10.7947 6.10842 10.3252C6.07897 9.75667 6.16563 9.18805 6.36311 8.65406C6.56059 8.12007 6.86478 7.6319 7.25709 7.2193C7.6494 6.8067 8.12162 6.47834 8.64498 6.2542C9.16834 6.03007 9.73187 5.91488 10.3012 5.91564C10.7444 5.8953 11.187 5.96717 11.601 6.12677C12.0149 6.28636 12.3913 6.5302 12.7061 6.84279C13.021 7.15538 13.2675 7.52994 13.4301 7.94275C13.5926 8.35555 13.6677 8.79762 13.6506 9.24096C13.6988 10.9759 12.7349 11.9879 11.5783 11.9879L11.6506 12.0361Z" fill="#968B79"/>
</g>
<defs>
<clipPath id="clip0_75_1279">
<rect width="14" height="14" fill="white" transform="translate(3 3)"/>
</clipPath>
</defs>
</svg>
