<svg width="20" height="20" viewBox="0 0 20 20" fill="none" xmlns="http://www.w3.org/2000/svg">
<path fill-rule="evenodd" clip-rule="evenodd" d="M10 17C6.13401 17 3 13.866 3 10C3 6.13401 6.13401 3 10 3C13.866 3 17 6.13401 17 10C17 13.866 13.866 17 10 17ZM10.1474 9.72995C10.1426 10.1101 10.4834 10.3222 10.7402 10.4484C11.004 10.5778 11.0926 10.6608 11.0916 10.7765C11.0896 10.9536 10.8812 11.0318 10.6861 11.0348C10.3457 11.0401 10.1479 10.9422 9.99055 10.8681L9.86796 11.4464C10.0258 11.5198 10.3181 11.5837 10.6211 11.5865C11.3325 11.5865 11.798 11.2325 11.8005 10.6836C11.8033 9.98702 10.8447 9.94844 10.8512 9.63707C10.8535 9.54267 10.9429 9.44193 11.1387 9.4163C11.2356 9.40335 11.5032 9.39346 11.8065 9.5343L11.9256 8.97474C11.7625 8.91485 11.5528 8.8575 11.2918 8.8575C10.6221 8.8575 10.1512 9.21633 10.1474 9.72995ZM13.0697 8.90572C12.9398 8.90572 12.8303 8.9821 12.7815 9.09934L11.7653 11.5454H12.4762L12.6176 11.1513H13.4864L13.5684 11.5454H14.195L13.6482 8.90572H13.0697ZM9.28545 8.90572L8.7251 11.5454H9.40251L9.96261 8.90572H9.28545ZM8.28331 8.90572L7.57821 10.7024L7.293 9.17471C7.25952 9.00418 7.12736 8.90572 6.9806 8.90572H5.82792L5.81181 8.98236C6.04844 9.03412 6.31729 9.11761 6.48016 9.20694C6.57984 9.2615 6.60829 9.30921 6.64101 9.43888L7.18123 11.5454H7.89716L8.99471 8.90572H8.28331Z" fill="#968B79"/>
<path fill-rule="evenodd" clip-rule="evenodd" d="M13.3744 9.6188H12.8125L13.1692 10.61L13.3744 9.6188Z" fill="#968B79"/>
</svg>
