<svg width="20" height="20" viewBox="0 0 20 20" fill="none" xmlns="http://www.w3.org/2000/svg">
<path fill-rule="evenodd" clip-rule="evenodd" d="M10 17C6.13401 17 3 13.866 3 10C3 6.13401 6.13401 3 10 3C13.866 3 17 6.13401 17 10C17 13.866 13.866 17 10 17ZM7.33337 12.6954V14.1896L8.73048 13.3953C9.11993 13.5076 9.53391 13.5681 9.96283 13.5681C12.2621 13.5681 14.1257 11.829 14.1257 9.68407C14.1257 7.53895 12.2621 5.8 9.96283 5.8C7.66376 5.8 5.8 7.53895 5.8 9.68407C5.8 10.8987 6.39759 11.9833 7.33337 12.6954Z" fill="#968B79"/>
<path fill-rule="evenodd" clip-rule="evenodd" d="M9.5183 8.62024L7.27331 10.9972L9.31644 9.87623L10.3839 10.9972L12.6163 8.62024L10.5958 9.72161L9.5183 8.62024Z" fill="#968B79"/>
</svg>
