<svg width="20" height="20" viewBox="0 0 20 20" fill="none" xmlns="http://www.w3.org/2000/svg">
<path fill-rule="evenodd" clip-rule="evenodd" d="M3 10C3 6.13401 6.13401 3 10 3C13.866 3 17 6.13401 17 10C17 13.866 13.866 17 10 17C6.13401 17 3 13.866 3 10ZM7.82285 10.9907C7.82285 11.4249 7.46814 11.7796 7.03394 11.7796C6.59973 11.7796 6.24503 11.4249 6.24503 10.9907C6.24503 10.5565 6.59973 10.2018 7.03394 10.2018H7.82285V10.9907ZM9.00927 10.2018C8.57507 10.2018 8.22036 10.5565 8.22036 10.9907V12.9661C8.22036 13.4003 8.57507 13.755 9.00927 13.755C9.44348 13.755 9.79819 13.4003 9.79819 12.9661V10.9907C9.79819 10.5565 9.44348 10.2018 9.00927 10.2018ZM9.00927 7.82285C8.57507 7.82285 8.22036 7.46814 8.22036 7.03394C8.22036 6.59973 8.57507 6.24503 9.00927 6.24503C9.44348 6.24503 9.79819 6.59973 9.79819 7.03394V7.82285H9.00927ZM9.79819 9.00927C9.79819 8.57507 9.44348 8.22036 9.00927 8.22036H7.03394C6.59973 8.22036 6.24503 8.57507 6.24503 9.00927C6.24503 9.44348 6.59973 9.79819 7.03394 9.79819H9.00927C9.44348 9.79819 9.79819 9.44348 9.79819 9.00927ZM12.1771 9.00927C12.1771 8.57507 12.5319 8.22036 12.9661 8.22036C13.4003 8.22036 13.755 8.57507 13.755 9.00927C13.755 9.44348 13.4003 9.79819 12.9661 9.79819H12.1771V9.00927ZM10.9907 9.79818C11.4249 9.79818 11.7796 9.44348 11.7796 9.00927V7.03394C11.7796 6.59973 11.4249 6.24503 10.9907 6.24503C10.5565 6.24503 10.2018 6.59973 10.2018 7.03394V9.00927C10.2018 9.44348 10.5565 9.79818 10.9907 9.79818ZM10.9907 12.1771C11.4249 12.1771 11.7796 12.5319 11.7796 12.9661C11.7796 13.4003 11.4249 13.755 10.9907 13.755C10.5565 13.755 10.2018 13.4003 10.2018 12.9661V12.1771H10.9907ZM10.2018 10.9907C10.2018 11.4249 10.5565 11.7796 10.9907 11.7796H12.9661C13.4003 11.7796 13.755 11.4249 13.755 10.9907C13.755 10.5565 13.4003 10.2018 12.9661 10.2018H10.9907C10.5565 10.2018 10.2018 10.5565 10.2018 10.9907Z" fill="#968B79"/>
</svg>
