<svg width="20" height="20" viewBox="0 0 20 20" fill="none" xmlns="http://www.w3.org/2000/svg">
<path fill-rule="evenodd" clip-rule="evenodd" d="M3 10C3 6.13401 6.13401 3 10 3C13.866 3 17 6.13401 17 10C17 13.866 13.866 17 10 17C6.13401 17 3 13.866 3 10ZM11.1396 7.13043C11.4069 6.78541 11.6095 6.29777 11.5362 5.8C11.0994 5.83036 10.5888 6.10984 10.2908 6.47413C10.0193 6.8042 9.79605 7.29522 9.88323 7.77179C10.3608 7.78673 10.8536 7.5005 11.1396 7.13043ZM13.5 11.8127C12.11 11.2841 11.8873 9.30797 13.2629 8.54952C12.8433 8.02332 12.2537 7.7183 11.6971 7.7183C10.9619 7.7183 10.651 8.07006 10.1404 8.07006C9.61404 8.07006 9.21409 7.71926 8.57849 7.71926C7.9539 7.71926 7.28907 8.1009 6.86757 8.75334C6.27507 9.67226 6.37614 11.3997 7.33697 12.8714C7.6804 13.398 8.13926 13.9898 8.73942 13.9951C9.27348 14.0004 9.42436 13.6525 10.1481 13.6486C10.8718 13.6443 11.0093 13.9994 11.5424 13.9936C12.1431 13.9888 12.6273 13.333 12.9707 12.8063C13.2169 12.429 13.3089 12.2387 13.5 11.8127Z" fill="#968B79"/>
</svg>
