<svg width="20" height="20" viewBox="0 0 20 20" fill="none" xmlns="http://www.w3.org/2000/svg">
<path d="M9.99379 16.2444C13.5534 16.2444 16.4914 13.3064 16.4914 9.75307C16.4914 6.19978 13.5471 3.26172 9.98751 3.26172C6.43422 3.26172 3.50244 6.19978 3.50244 9.75307C3.50244 13.3064 6.4405 16.2444 9.99379 16.2444ZM7.99114 12.7476C7.58936 12.7476 7.35079 12.4777 7.35079 12.0257V7.39258C7.35079 6.93429 7.58936 6.67062 7.99114 6.67062C8.40548 6.67062 8.65032 6.93429 8.65032 7.39258V9.13783H11.3247V7.39258C11.3247 6.93429 11.5633 6.67062 11.9651 6.67062C12.3857 6.67062 12.6242 6.93429 12.6242 7.39258V12.0257C12.6242 12.484 12.3857 12.7476 11.9651 12.7476C11.5633 12.7476 11.3247 12.4777 11.3247 12.0257V10.136H8.65032V12.0257C8.65032 12.484 8.40548 12.7476 7.99114 12.7476Z" fill="#968B79"/>
</svg>
