<svg width="20" height="20" viewBox="0 0 20 20" fill="none" xmlns="http://www.w3.org/2000/svg">
<path d="M9.99379 16.2444C13.5534 16.2444 16.4914 13.3064 16.4914 9.75307C16.4914 6.19978 13.5471 3.26172 9.98751 3.26172C6.43422 3.26172 3.50244 6.19978 3.50244 9.75307C3.50244 13.3064 6.4405 16.2444 9.99379 16.2444ZM9.69873 12.7539C8.74449 12.7539 8.0037 12.2956 7.77769 11.5925C7.74002 11.4858 7.72119 11.379 7.72119 11.266C7.72119 10.9208 7.95347 10.6885 8.29876 10.6885C8.58126 10.6885 8.75704 10.8203 8.87633 11.1028C9.01444 11.4732 9.29694 11.6867 9.72384 11.6867C10.201 11.6867 10.4897 11.3477 10.4897 10.745V7.41769C10.4897 6.99079 10.7095 6.71456 11.1113 6.71456C11.5193 6.71456 11.7453 6.97824 11.7453 7.41769V10.7701C11.7453 12.0445 11.0171 12.7539 9.69873 12.7539Z" fill="#968B79"/>
</svg>
