<svg width="20" height="20" viewBox="0 0 20 20" fill="none" xmlns="http://www.w3.org/2000/svg">
<path d="M9.99379 16.2444C13.5534 16.2444 16.4914 13.3064 16.4914 9.75307C16.4914 6.19978 13.5471 3.26172 9.98751 3.26172C6.43422 3.26172 3.50244 6.19978 3.50244 9.75307C3.50244 13.3064 6.4405 16.2444 9.99379 16.2444ZM8.27992 12.7225C7.89069 12.7225 7.65841 12.4651 7.65841 12.0194V7.39886C7.65841 6.95312 7.89069 6.69573 8.27992 6.69573C8.68171 6.69573 8.91399 6.95312 8.91399 7.39886V9.40778H8.95794L11.2745 6.9594C11.4503 6.77107 11.5884 6.69573 11.7893 6.69573C12.1094 6.69573 12.3668 6.92174 12.3668 7.2168C12.3668 7.39258 12.3166 7.51186 12.1785 7.66253L10.5588 9.36384L12.3229 11.6804C12.4296 11.8373 12.4861 11.9817 12.4861 12.1387C12.4861 12.4777 12.235 12.7225 11.8834 12.7225C11.6637 12.7225 11.5005 12.6283 11.3373 12.4086L9.64223 10.1486L8.91399 10.9145V12.0319C8.91399 12.4714 8.68171 12.7225 8.27992 12.7225Z" fill="#968B79"/>
</svg>
