<svg width="20" height="20" viewBox="0 0 20 20" fill="none" xmlns="http://www.w3.org/2000/svg">
<path d="M9.99379 16.2444C13.5534 16.2444 16.4914 13.3064 16.4914 9.75307C16.4914 6.19978 13.5471 3.26172 9.98751 3.26172C6.43422 3.26172 3.50244 6.19978 3.50244 9.75307C3.50244 13.3064 6.4405 16.2444 9.99379 16.2444ZM8.80099 12.6597C8.38037 12.6597 8.14809 12.3647 8.14809 11.9189V7.40513C8.14809 6.9594 8.38037 6.66434 8.80099 6.66434C9.22789 6.66434 9.46645 6.94685 9.46645 7.40513V11.5988H11.6951C12.0278 11.5988 12.2538 11.7934 12.2538 12.1261C12.2538 12.4588 12.0278 12.6597 11.6951 12.6597H8.80099Z" fill="#968B79"/>
</svg>
