<svg width="20" height="20" viewBox="0 0 20 20" fill="none" xmlns="http://www.w3.org/2000/svg">
<path d="M9.99379 16.2444C13.5534 16.2444 16.4914 13.3064 16.4914 9.75307C16.4914 6.19978 13.5471 3.26172 9.98751 3.26172C6.43422 3.26172 3.50244 6.19978 3.50244 9.75307C3.50244 13.3064 6.4405 16.2444 9.99379 16.2444ZM7.51402 12.779C7.18129 12.779 6.9804 12.553 6.9804 12.1826V7.36747C6.9804 6.95312 7.26918 6.67062 7.69608 6.67062C8.07275 6.67062 8.31131 6.84012 8.44315 7.19169L9.97496 11.1405H10.0126L11.5319 7.19169C11.6637 6.8464 11.9023 6.67062 12.2789 6.67062C12.7058 6.67062 12.9946 6.95312 12.9946 7.36747V12.1826C12.9946 12.5593 12.7937 12.779 12.4547 12.779C12.1283 12.779 11.9274 12.553 11.9274 12.1826V8.67955H11.8709L10.5211 12.1387C10.4144 12.3961 10.2449 12.5216 9.97496 12.5216C9.71129 12.5216 9.54806 12.3961 9.44761 12.1387L8.10414 8.67955H8.04764V12.1826C8.04764 12.5593 7.84675 12.779 7.51402 12.779Z" fill="#968B79"/>
</svg>
