<svg width="20" height="20" viewBox="0 0 20 20" fill="none" xmlns="http://www.w3.org/2000/svg">
<path d="M9.99379 16.2444C13.5534 16.2444 16.4914 13.3064 16.4914 9.75307C16.4914 6.19978 13.5471 3.26172 9.98751 3.26172C6.43422 3.26172 3.50244 6.19978 3.50244 9.75307C3.50244 13.3064 6.4405 16.2444 9.99379 16.2444ZM8.07275 12.7476C7.70864 12.7476 7.49519 12.5091 7.49519 12.1261V7.28585C7.49519 6.90918 7.70864 6.67062 8.06648 6.67062C8.31759 6.67062 8.47454 6.75851 8.68171 7.04102L11.2745 10.7073H11.331V7.29213C11.331 6.90918 11.5382 6.67062 11.896 6.67062C12.2664 6.67062 12.4798 6.89662 12.4798 7.29213V12.1449C12.4798 12.5216 12.2601 12.7476 11.9086 12.7476C11.6574 12.7476 11.5068 12.6597 11.3122 12.3898L8.69427 8.73605H8.64404V12.1261C8.64404 12.5153 8.43059 12.7476 8.07275 12.7476Z" fill="#968B79"/>
</svg>
