<svg width="20" height="20" viewBox="0 0 20 20" fill="none" xmlns="http://www.w3.org/2000/svg">
<path d="M9.99379 16.2444C13.5534 16.2444 16.4914 13.3064 16.4914 9.75307C16.4914 6.19978 13.5471 3.26172 9.98751 3.26172C6.43422 3.26172 3.50244 6.19978 3.50244 9.75307C3.50244 13.3064 6.4405 16.2444 9.99379 16.2444ZM8.33015 12.9109C8.01625 12.9109 7.8028 12.6597 7.86558 12.3521L8.10414 11.2158H7.61447C7.36335 11.2158 7.18757 11.0338 7.18757 10.7764C7.18757 10.4813 7.40102 10.2679 7.70236 10.2679H8.29876L8.53732 9.10017H8.05392C7.80908 9.10017 7.6333 8.91811 7.6333 8.66071C7.6333 8.36565 7.84675 8.14593 8.14809 8.14593H8.73193L8.97677 6.96568C9.03327 6.6769 9.22161 6.52623 9.52295 6.52623C9.83057 6.52623 10.044 6.78362 9.98124 7.08496L9.76151 8.14593H10.835L11.0861 6.96568C11.1426 6.6769 11.331 6.52623 11.626 6.52623C11.9337 6.52623 12.1534 6.77734 12.0969 7.08496L11.8772 8.14593H12.3606C12.6117 8.14593 12.7875 8.33426 12.7875 8.59166C12.7875 8.88672 12.574 9.10017 12.2727 9.10017H11.6825L11.444 10.2679H11.9148C12.1659 10.2679 12.3417 10.4436 12.3417 10.701C12.3417 10.9961 12.1283 11.2158 11.8269 11.2158H11.2431L10.9857 12.4651C10.9229 12.7602 10.7346 12.9109 10.4207 12.9109C10.1131 12.9109 9.9059 12.6597 9.96868 12.3521L10.201 11.2158H9.13372L8.87005 12.4714C8.80727 12.7602 8.63149 12.9109 8.33015 12.9109ZM9.24672 10.3746H10.4584L10.7409 9.01855H9.52295L9.24672 10.3746Z" fill="#968B79"/>
</svg>
