<svg width="20" height="20" viewBox="0 0 20 20" fill="none" xmlns="http://www.w3.org/2000/svg">
<path d="M9.99379 16.2444C13.5534 16.2444 16.4914 13.3064 16.4914 9.75307C16.4914 6.19978 13.5471 3.26172 9.98751 3.26172C6.43422 3.26172 3.50244 6.19978 3.50244 9.75307C3.50244 13.3064 6.4405 16.2444 9.99379 16.2444ZM9.99379 12.8041C8.32387 12.8041 7.14362 11.5674 7.14362 9.70912C7.14362 7.85086 8.32387 6.61412 9.99379 6.61412C11.6574 6.61412 12.844 7.85086 12.844 9.70912C12.844 11.5674 11.6574 12.8041 9.99379 12.8041ZM9.99379 11.7997C10.9418 11.7997 11.5695 10.9898 11.5695 9.70912C11.5695 8.42843 10.9418 7.61858 9.99379 7.61858C9.04583 7.61858 8.41176 8.42843 8.41176 9.70912C8.41176 10.9898 9.04583 11.7997 9.99379 11.7997Z" fill="#968B79"/>
</svg>
