<svg width="20" height="20" viewBox="0 0 20 20" fill="none" xmlns="http://www.w3.org/2000/svg">
<path d="M9.99379 16.2444C13.5534 16.2444 16.4914 13.3064 16.4914 9.75307C16.4914 6.19978 13.5471 3.26172 9.98751 3.26172C6.43422 3.26172 3.50244 6.19978 3.50244 9.75307C3.50244 13.3064 6.4405 16.2444 9.99379 16.2444ZM8.57499 12.7476C8.16692 12.7476 7.9472 12.4651 7.9472 12.0319V7.48047C7.9472 7.03474 8.16692 6.75223 8.6001 6.75223H10.3893C11.6825 6.75223 12.5426 7.57464 12.5426 8.80511C12.5426 10.0419 11.6825 10.858 10.3767 10.858H9.22161V12.0319C9.22161 12.4714 8.98933 12.7476 8.57499 12.7476ZM9.22161 9.91002H10.2072C10.8978 9.91002 11.3122 9.49567 11.3122 8.80511C11.3122 8.12081 10.8978 7.70647 10.2072 7.70647H9.22161V9.91002Z" fill="#968B79"/>
</svg>
