<svg width="20" height="20" viewBox="0 0 20 20" fill="none" xmlns="http://www.w3.org/2000/svg">
<path d="M9.99379 16.2444C13.5534 16.2444 16.4914 13.3064 16.4914 9.75307C16.4914 6.19978 13.5471 3.26172 9.98751 3.26172C6.43422 3.26172 3.50244 6.19978 3.50244 9.75307C3.50244 13.3064 6.4405 16.2444 9.99379 16.2444ZM9.99379 12.8041C8.32387 12.8041 7.13735 11.5548 7.13735 9.70285C7.13735 7.85086 8.32387 6.60784 9.99379 6.60784C11.6637 6.60784 12.844 7.85086 12.844 9.70285C12.844 10.7638 12.4547 11.6302 11.8081 12.1638L12.1283 12.5907C12.2538 12.7665 12.2915 12.8606 12.2915 12.9987C12.2915 13.2624 12.0969 13.4508 11.8207 13.4508C11.6198 13.4508 11.4817 13.3691 11.331 13.1557L10.9543 12.6409C10.6592 12.7476 10.3391 12.8041 9.99379 12.8041ZM9.99379 11.7934C10.1507 11.7934 10.2951 11.7746 10.427 11.7306L10.1696 11.3665C10.088 11.2598 10.0503 11.1656 10.0503 11.0526C10.0503 10.8329 10.2386 10.6696 10.4584 10.6696C10.6027 10.6696 10.6906 10.7136 10.7785 10.8266L11.0924 11.2347C11.4 10.8831 11.5758 10.3557 11.5758 9.70285C11.5758 8.42215 10.9418 7.61858 9.99379 7.61858C9.03955 7.61858 8.41176 8.42215 8.41176 9.70285C8.41176 10.9898 9.03955 11.7934 9.99379 11.7934Z" fill="#968B79"/>
</svg>
