<svg width="20" height="20" viewBox="0 0 20 20" fill="none" xmlns="http://www.w3.org/2000/svg">
<path d="M9.99379 16.2444C13.5534 16.2444 16.4914 13.3064 16.4914 9.75307C16.4914 6.19978 13.5471 3.26172 9.98751 3.26172C6.43422 3.26172 3.50244 6.19978 3.50244 9.75307C3.50244 13.3064 6.4405 16.2444 9.99379 16.2444ZM9.84312 11.0463C9.43506 11.0463 9.20905 10.858 9.20905 10.4813V10.4122C9.20905 9.82213 9.54806 9.4894 10.0126 9.16295C10.5651 8.77999 10.835 8.57282 10.835 8.17104C10.835 7.73786 10.5023 7.44908 9.98751 7.44908C9.61084 7.44908 9.33461 7.63742 9.12744 7.95759C8.92655 8.18359 8.83238 8.37821 8.45571 8.37821C8.14809 8.37821 7.89697 8.17732 7.89697 7.86342C7.89697 7.73786 7.92208 7.62486 7.96603 7.51186C8.1732 6.89662 8.92655 6.39439 10.0503 6.39439C11.218 6.39439 12.2036 7.0159 12.2036 8.10826C12.2036 8.86161 11.7893 9.23828 11.1364 9.6589C10.722 9.92885 10.4835 10.1549 10.4646 10.4939C10.4646 10.5127 10.4584 10.5441 10.4584 10.5692C10.4395 10.8391 10.2072 11.0463 9.84312 11.0463ZM9.83684 13.0552C9.40995 13.0552 9.05838 12.7476 9.05838 12.3333C9.05838 11.9189 9.40367 11.6113 9.83684 11.6113C10.2637 11.6113 10.609 11.9189 10.609 12.3333C10.609 12.7539 10.2575 13.0552 9.83684 13.0552Z" fill="#968B79"/>
</svg>
