<svg width="20" height="20" viewBox="0 0 20 20" fill="none" xmlns="http://www.w3.org/2000/svg">
<path d="M9.99379 16.2444C13.5534 16.2444 16.4914 13.3064 16.4914 9.75307C16.4914 6.19978 13.5471 3.26172 9.98751 3.26172C6.43422 3.26172 3.50244 6.19978 3.50244 9.75307C3.50244 13.3064 6.4405 16.2444 9.99379 16.2444ZM8.29248 12.7476C7.90953 12.7476 7.69608 12.4777 7.69608 12.0633V7.48047C7.69608 7.03474 7.91581 6.75223 8.34898 6.75223H10.1759C11.5507 6.75223 12.3919 7.48675 12.3919 8.67327C12.3919 9.48312 11.9148 10.1549 11.1615 10.3934L12.0718 11.7934C12.1659 11.9378 12.2036 12.0571 12.2036 12.2203C12.2036 12.5279 11.9713 12.7476 11.6449 12.7476C11.3687 12.7476 11.218 12.6346 11.0234 12.327L9.96868 10.5943H8.91399V12.0633C8.91399 12.4902 8.69427 12.7476 8.29248 12.7476ZM8.91399 9.69657H10.0063C10.7032 9.69657 11.1426 9.33873 11.1426 8.70466C11.1426 8.05804 10.6969 7.68136 10.0252 7.68136H8.91399V9.69657Z" fill="#968B79"/>
</svg>
