<svg width="20" height="20" viewBox="0 0 20 20" fill="none" xmlns="http://www.w3.org/2000/svg">
<path d="M9.99379 16.2444C13.5534 16.2444 16.4914 13.3064 16.4914 9.75307C16.4914 6.19978 13.5471 3.26172 9.98751 3.26172C6.43422 3.26172 3.50244 6.19978 3.50244 9.75307C3.50244 13.3064 6.4405 16.2444 9.99379 16.2444ZM9.91218 12.8041C8.73821 12.8041 7.94092 12.2768 7.6898 11.6804C7.62702 11.5548 7.60191 11.4355 7.60191 11.3225C7.60191 11.0024 7.81536 10.8015 8.14181 10.8015C8.38665 10.8015 8.53732 10.9019 8.68799 11.1217C8.95166 11.5925 9.37228 11.8185 9.98751 11.8185C10.6341 11.8185 11.1238 11.536 11.1238 11.04C11.1238 10.632 10.879 10.4625 10.1193 10.2679L9.24672 10.0356C8.21087 9.78446 7.65213 9.2885 7.65213 8.44099C7.65213 7.36119 8.6001 6.61412 9.98124 6.61412C11.061 6.61412 11.8646 7.09124 12.1283 7.7567C12.1848 7.88225 12.2099 8.00153 12.2099 8.10198C12.2099 8.42843 11.9964 8.59793 11.6888 8.59793C11.4252 8.59793 11.2745 8.49121 11.1364 8.27148C10.8915 7.79436 10.5274 7.57464 9.94985 7.57464C9.33461 7.57464 8.9391 7.87598 8.9391 8.3531C8.9391 8.71094 9.18394 8.91811 9.81173 9.06878L10.6404 9.27595C11.783 9.5459 12.4045 10.0481 12.4045 10.927C12.4045 12.0759 11.4189 12.8041 9.91218 12.8041Z" fill="#968B79"/>
</svg>
