<svg width="20" height="20" viewBox="0 0 20 20" fill="none" xmlns="http://www.w3.org/2000/svg">
<path d="M9.99379 16.2507C13.5534 16.2507 16.4914 13.3126 16.4914 9.75307C16.4914 6.19978 13.5471 3.26172 9.98751 3.26172C6.43422 3.26172 3.50244 6.19978 3.50244 9.75307C3.50244 13.3126 6.4405 16.2507 9.99379 16.2507ZM7.99114 12.6409C7.72747 12.6409 7.54541 12.4714 7.54541 12.2015C7.54541 11.9566 7.67097 11.8248 7.91581 11.7118C8.3427 11.5611 8.71938 11.1405 8.71938 10.5064C8.71938 10.3369 8.68799 10.1549 8.64404 9.9728H7.92208C7.70236 9.9728 7.53913 9.82213 7.53913 9.60868C7.53913 9.38895 7.70236 9.23828 7.92208 9.23828H8.48082C8.41176 8.99972 8.37409 8.74861 8.37409 8.49749C8.37409 7.31097 9.1965 6.53878 10.5651 6.53878C11.0296 6.53878 11.4063 6.60156 11.7077 6.72712C11.9399 6.82757 12.0278 6.97824 12.0278 7.16657C12.0278 7.41141 11.8897 7.5558 11.626 7.5558C11.4189 7.5558 11.1866 7.42397 10.6655 7.42397C9.85568 7.42397 9.39111 7.85714 9.39111 8.50377C9.39111 8.77999 9.44134 9.01855 9.49784 9.23828H11.1929C11.4189 9.23828 11.5758 9.38895 11.5758 9.60868C11.5758 9.82213 11.4189 9.9728 11.1929 9.9728H9.66106C9.69873 10.136 9.71756 10.3118 9.71756 10.5064C9.71756 11.0086 9.51667 11.4732 9.1965 11.7494H11.8081C12.0781 11.7494 12.2727 11.9252 12.2727 12.1952C12.2727 12.4714 12.0781 12.6409 11.8081 12.6409H7.99114Z" fill="#968B79"/>
</svg>
