<svg width="20" height="20" viewBox="0 0 20 20" fill="none" xmlns="http://www.w3.org/2000/svg">
<path d="M9.99379 16.2444C13.5534 16.2444 16.4914 13.3064 16.4914 9.75307C16.4914 6.19978 13.5471 3.26172 9.98751 3.26172C6.43422 3.26172 3.50244 6.19978 3.50244 9.75307C3.50244 13.3064 6.4405 16.2444 9.99379 16.2444ZM9.97496 12.7665C9.55434 12.7665 9.32206 12.4714 9.32206 12.0257V7.79436H7.91581C7.58936 7.79436 7.36335 7.59347 7.36335 7.2733C7.36335 6.94057 7.58936 6.74595 7.91581 6.74595H12.0655C12.3919 6.74595 12.6117 6.94057 12.6117 7.2733C12.6117 7.59347 12.3919 7.79436 12.0655 7.79436H10.6404V12.0257C10.6404 12.484 10.4081 12.7665 9.97496 12.7665Z" fill="#968B79"/>
</svg>
