<svg width="20" height="20" viewBox="0 0 20 20" fill="none" xmlns="http://www.w3.org/2000/svg">
<path d="M9.99379 16.2444C13.5534 16.2444 16.4914 13.3064 16.4914 9.75307C16.4914 6.19978 13.5471 3.26172 9.98751 3.26172C6.43422 3.26172 3.50244 6.19978 3.50244 9.75307C3.50244 13.3064 6.4405 16.2444 9.99379 16.2444ZM9.98751 12.8041C8.44315 12.8041 7.40102 11.9252 7.40102 10.5755V7.36747C7.40102 6.92801 7.6333 6.67062 8.02881 6.67062C8.43687 6.67062 8.66288 6.92801 8.66288 7.36747V10.4499C8.66288 11.2535 9.19022 11.762 9.98751 11.762C10.7848 11.762 11.3122 11.2535 11.3122 10.4499V7.36747C11.3122 6.92801 11.5444 6.67062 11.9399 6.67062C12.348 6.67062 12.5803 6.92801 12.5803 7.36747V10.5755C12.5803 11.9252 11.5319 12.8041 9.98751 12.8041Z" fill="#968B79"/>
</svg>
