<svg width="20" height="20" viewBox="0 0 20 20" fill="none" xmlns="http://www.w3.org/2000/svg">
<path d="M9.99379 16.2444C13.5534 16.2444 16.4914 13.3064 16.4914 9.75307C16.4914 6.19978 13.5471 3.26172 9.98751 3.26172C6.43422 3.26172 3.50244 6.19978 3.50244 9.75307C3.50244 13.3064 6.4405 16.2444 9.99379 16.2444ZM9.98751 12.7979C9.46645 12.7979 9.20278 12.5844 9.00816 12.0508L7.35079 7.6123C7.31313 7.48675 7.29429 7.39886 7.29429 7.28585C7.29429 6.92174 7.56424 6.6769 7.9472 6.6769C8.30504 6.6769 8.49337 6.84012 8.60638 7.24191L9.9624 11.4042H10.0126L11.3687 7.24191C11.4817 6.84012 11.67 6.6769 12.0278 6.6769C12.4108 6.6769 12.6807 6.91546 12.6807 7.27958C12.6807 7.39258 12.6619 7.48675 12.6242 7.6123L10.9731 12.0257C10.7848 12.553 10.496 12.7979 9.98751 12.7979Z" fill="#968B79"/>
</svg>
