<svg width="20" height="20" viewBox="0 0 20 20" fill="none" xmlns="http://www.w3.org/2000/svg">
<path d="M9.99379 16.2444C13.5534 16.2444 16.4914 13.3064 16.4914 9.75307C16.4914 6.19978 13.5471 3.26172 9.98751 3.26172C6.43422 3.26172 3.50244 6.19978 3.50244 9.75307C3.50244 13.3064 6.4405 16.2444 9.99379 16.2444ZM8.27992 12.7979C7.88442 12.7979 7.6333 12.5907 7.54541 12.1952L6.36516 7.43652C6.34633 7.36747 6.34005 7.29841 6.34005 7.23563C6.34005 6.90918 6.56606 6.6769 6.90506 6.6769C7.25035 6.6769 7.42613 6.85268 7.50146 7.26074L8.3427 11.1468H8.39293L9.366 7.18541C9.44134 6.86523 9.64223 6.70829 9.98124 6.70829C10.3265 6.70829 10.5274 6.87151 10.6027 7.19169L11.5758 11.1468H11.626L12.4673 7.26074C12.5426 6.85268 12.7247 6.6769 13.07 6.6769C13.409 6.6769 13.6287 6.90918 13.6287 7.23563C13.6287 7.29841 13.6287 7.36747 13.6036 7.43652L12.4233 12.1952C12.3354 12.5907 12.0843 12.7979 11.6825 12.7979C11.2933 12.7979 11.0234 12.5907 10.9355 12.1952L10.0063 8.47865H9.9624L9.02699 12.1952C8.9391 12.5907 8.67543 12.7979 8.27992 12.7979Z" fill="#968B79"/>
</svg>
