<svg width="20" height="20" viewBox="0 0 20 20" fill="none" xmlns="http://www.w3.org/2000/svg">
<path d="M9.99379 16.2444C13.5534 16.2444 16.4914 13.3064 16.4914 9.75307C16.4914 6.19978 13.5471 3.26172 9.98751 3.26172C6.43422 3.26172 3.50244 6.19978 3.50244 9.75307C3.50244 13.3064 6.4405 16.2444 9.99379 16.2444ZM8.09787 12.7476C7.76514 12.7476 7.5203 12.5153 7.5203 12.2015C7.5203 12.0445 7.56424 11.9315 7.67725 11.7808L9.20905 9.68401L7.75258 7.68764C7.62702 7.51814 7.5768 7.40513 7.5768 7.23563C7.5768 6.91546 7.84047 6.67062 8.17948 6.67062C8.43687 6.67062 8.58754 6.76479 8.7696 7.03474L10.0252 8.87416H10.0628L11.287 7.04102C11.4565 6.76479 11.6072 6.67062 11.8646 6.67062C12.1973 6.67062 12.4485 6.9029 12.4485 7.2168C12.4485 7.36119 12.4045 7.49302 12.2852 7.64369L10.766 9.70912L12.2727 11.7557C12.3857 11.9064 12.4359 12.0257 12.4359 12.1826C12.4359 12.5153 12.1848 12.7476 11.8332 12.7476C11.5821 12.7476 11.4377 12.6472 11.2494 12.3647L9.99379 10.5378H9.95612L8.68171 12.3647C8.4871 12.6535 8.35526 12.7476 8.09787 12.7476Z" fill="#968B79"/>
</svg>
