<svg width="20" height="20" viewBox="0 0 20 20" fill="none" xmlns="http://www.w3.org/2000/svg">
<path d="M9.99379 16.2444C13.5534 16.2444 16.4914 13.3064 16.4914 9.75307C16.4914 6.19978 13.5471 3.26172 9.98751 3.26172C6.43422 3.26172 3.50244 6.19978 3.50244 9.75307C3.50244 13.3064 6.4405 16.2444 9.99379 16.2444ZM9.98751 12.7476C9.57317 12.7476 9.34089 12.4588 9.34089 12.0131V10.5755L7.5768 7.59347C7.50774 7.47419 7.47635 7.35491 7.47635 7.23563C7.47635 6.91546 7.72747 6.67062 8.07275 6.67062C8.36782 6.67062 8.51848 6.77734 8.68171 7.09752L9.97496 9.39523H10.0189L11.3184 7.09752C11.4754 6.78362 11.626 6.67062 11.9148 6.67062C12.2601 6.67062 12.505 6.90918 12.505 7.24191C12.505 7.36119 12.4736 7.48047 12.3982 7.59347L10.6467 10.5629V12.0131C10.6467 12.4714 10.4144 12.7476 9.98751 12.7476Z" fill="#968B79"/>
</svg>
