<svg width="20" height="20" viewBox="0 0 20 20" fill="none" xmlns="http://www.w3.org/2000/svg">
<path d="M9.99379 16.2444C13.5534 16.2444 16.4914 13.3064 16.4914 9.75307C16.4914 6.19978 13.5471 3.26172 9.98751 3.26172C6.43422 3.26172 3.50244 6.19978 3.50244 9.75307C3.50244 13.3064 6.4405 16.2444 9.99379 16.2444ZM9.99379 12.9925C9.69245 12.9925 9.49784 12.7853 9.49784 12.4588V11.6867H8.32387C8.14181 11.6867 8.01625 11.5548 8.01625 11.379C8.01625 11.2033 8.14181 11.0714 8.32387 11.0714H9.49784V10.5943H8.32387C8.14181 10.5943 8.01625 10.4562 8.01625 10.2804C8.01625 10.1046 8.14181 9.9728 8.32387 9.9728H9.18394L7.67725 7.53069C7.60819 7.41769 7.5768 7.31724 7.5768 7.19796C7.5768 6.92801 7.79653 6.72084 8.08531 6.72084C8.2862 6.72084 8.43059 6.79618 8.5436 7.00335L10.0001 9.51451L11.444 7.00963C11.557 6.80873 11.7077 6.72084 11.9086 6.72084C12.1973 6.72084 12.4108 6.92801 12.4108 7.19796C12.4108 7.31724 12.3794 7.41769 12.3103 7.53069L10.7974 9.9728H11.6825C11.8646 9.9728 11.9902 10.1046 11.9902 10.2804C11.9902 10.4562 11.8646 10.5943 11.6825 10.5943H10.496V11.0714H11.6825C11.8646 11.0714 11.9902 11.2033 11.9902 11.379C11.9902 11.5548 11.8646 11.6867 11.6825 11.6867H10.496V12.4651C10.496 12.7916 10.3014 12.9925 9.99379 12.9925Z" fill="#968B79"/>
</svg>
