<svg width="20" height="20" viewBox="0 0 20 20" fill="none" xmlns="http://www.w3.org/2000/svg">
<path d="M9.99379 16.2444C13.5534 16.2444 16.4914 13.3064 16.4914 9.75307C16.4914 6.19978 13.5471 3.26172 9.98751 3.26172C6.43422 3.26172 3.50244 6.19978 3.50244 9.75307C3.50244 13.3064 6.4405 16.2444 9.99379 16.2444ZM8.19203 12.6597C7.85303 12.6597 7.62074 12.4337 7.62074 12.1198C7.62074 11.9252 7.67725 11.7997 7.84675 11.5674L10.6027 7.84459V7.78181H8.12298C7.79653 7.78181 7.57052 7.59347 7.57052 7.26702C7.57052 6.95312 7.79653 6.75851 8.12298 6.75851H11.626C11.9713 6.75851 12.2099 6.99079 12.2099 7.31097C12.2099 7.51814 12.1659 7.63114 11.9964 7.84459L9.24044 11.5737V11.6364H11.8646C12.1973 11.6364 12.4171 11.8185 12.4171 12.1449C12.4171 12.4588 12.1911 12.6597 11.8646 12.6597H8.19203Z" fill="#968B79"/>
</svg>
